<svg width="449" height="124" viewBox="0 0 449 124" fill="none" xmlns="http://www.w3.org/2000/svg">
<path d="M36.7604 0L74.6352 94.0157H77.7546L115.183 0H151.052L97.5818 123.2H54.1386L0 0H36.7604Z" fill="#2A3E95"/>
<path d="M349.064 0.0400391V43.4564H378.008L407.621 0.0400391H445.471L405.84 57.0378L448.143 123.163H409.18L378.899 73.5129H349.064V123.163H316.334V0.0400391H349.064Z" fill="#2A3E95"/>
<path d="M245.061 0.0810547V2.3181H212.311V0.0810547H245.061ZM245.061 4.56384V6.65762H212.311V4.56384H245.061ZM245.061 8.89995V11.1812H212.311V8.89995H245.061ZM245.061 13.4251V15.5434H212.311V13.4251H245.061ZM245.061 17.7865V19.6936H212.311V17.7865H245.061ZM245.061 21.9404V24.038H212.311V21.9404H245.061ZM245.061 26.2819V28.3601H212.311V26.2819H245.061ZM245.061 45.2083V123.249H212.311V45.2083H245.061Z" fill="#2A3E95"/>
<path d="M154.779 47.6162H158.584C159.165 47.6162 159.641 48.0902 159.641 48.672V72.4203C159.641 73.002 159.165 73.4772 158.584 73.4772H154.779C154.198 73.4772 153.723 73.002 153.723 72.4203V48.672C153.723 48.0902 154.198 47.6162 154.779 47.6162Z" fill="#2A3E95"/>
<path d="M266.533 47.6162H270.338C270.919 47.6162 271.395 48.0902 271.395 48.672V72.4203C271.395 73.002 270.919 73.4772 270.338 73.4772H266.533C265.952 73.4772 265.477 73.002 265.477 72.4203V48.672C265.477 48.0902 265.952 47.6162 266.533 47.6162Z" fill="#2A3E95"/>
</svg>
