
<svg xmlns="http://www.w3.org/2000/svg" fill-rule="evenodd" viewBox="0 0 100 100">
    <path d="M51.951 53.44c-20.057 0-36.375 16.929-36.375 37.736a1.5 1.5 0 0 0 1.5 1.5h69.75a1.5 1.5 0 0 0 1.5-1.5c0-20.808-16.317-37.736-36.375-37.736zM18.607 89.676c.757-18.46 15.424-33.236 33.344-33.236s32.587 14.776 33.345 33.236H18.607zm32.716-40.358c11.568 0 20.979-9.74 20.979-21.713S62.892 5.892 51.323 5.892c-11.569 0-20.98 9.741-20.98 21.713s9.411 21.713 20.98 21.713zm0-40.426c9.914 0 17.979 8.395 17.979 18.713s-8.065 18.713-17.979 18.713c-9.915 0-17.98-8.395-17.98-18.713s8.066-18.713 17.98-18.713z"/>
</svg>
