<svg width="13" height="17" viewBox="0 0 13 17" fill="none" xmlns="http://www.w3.org/2000/svg">
<path d="M0.431641 17V14.225C0.431641 13.3167 0.569141 12.5458 0.844141 11.9125C1.11914 11.2792 1.52747 10.7458 2.06914 10.3125C2.61914 9.87083 3.30664 9.49167 4.13164 9.175L7.45664 7.9C8.18164 7.60833 8.71497 7.25 9.05664 6.825C9.40664 6.4 9.58164 5.875 9.58164 5.25C9.58164 4.625 9.35247 4.1 8.89414 3.675C8.44414 3.24167 7.79831 3.025 6.95664 3.025C6.14831 3.025 5.46914 3.22917 4.91914 3.6375C4.37747 4.0375 4.06497 4.625 3.98164 5.4H0.706641C0.731641 4.29167 1.01914 3.37083 1.56914 2.6375C2.11914 1.90417 2.85664 1.35833 3.78164 0.999999C4.70664 0.633332 5.74831 0.449998 6.90664 0.449998C7.99831 0.449998 8.98581 0.658332 9.86914 1.075C10.7525 1.48333 11.4525 2.05833 11.9691 2.8C12.4941 3.53333 12.7566 4.39167 12.7566 5.375C12.7566 6.20833 12.6025 6.94167 12.2941 7.575C11.9941 8.20833 11.5358 8.7625 10.9191 9.2375C10.3025 9.7125 9.52331 10.1333 8.58164 10.5L5.23164 11.8C4.58164 12.05 4.11081 12.3292 3.81914 12.6375C3.52747 12.9375 3.38164 13.3333 3.38164 13.825V14.3H12.6566V17H0.431641Z" fill="#F5914F"/>
</svg>
