<svg width="14" height="18" viewBox="0 0 14 18" fill="none" xmlns="http://www.w3.org/2000/svg">
<path d="M7.54912 17.35C6.69079 17.35 5.86162 17.2333 5.06162 17C4.26162 16.7667 3.54495 16.4208 2.91162 15.9625C2.27829 15.5042 1.77412 14.9375 1.39912 14.2625C1.03245 13.5792 0.849121 12.7917 0.849121 11.9H3.94912C3.98245 12.4667 4.15329 12.9583 4.46162 13.375C4.76995 13.7833 5.18662 14.1 5.71162 14.325C6.24495 14.5417 6.85745 14.65 7.54912 14.65C8.56579 14.65 9.36162 14.4167 9.93662 13.95C10.5116 13.4833 10.7991 12.8917 10.7991 12.175C10.7991 11.7083 10.6825 11.3083 10.4491 10.975C10.2158 10.6333 9.85745 10.375 9.37412 10.2C8.89079 10.0167 8.27412 9.925 7.52412 9.925H5.37412V7.6H7.19912C8.14912 7.6 8.89495 7.39583 9.43662 6.9875C9.97829 6.57917 10.2491 6.025 10.2491 5.325C10.2491 4.7 10.0158 4.17917 9.54912 3.7625C9.08245 3.3375 8.38245 3.125 7.44912 3.125C6.69079 3.125 6.01162 3.27917 5.41162 3.5875C4.81995 3.89583 4.44079 4.43333 4.27412 5.2H1.17412C1.29079 4.09167 1.62412 3.1875 2.17412 2.4875C2.73245 1.7875 3.45329 1.275 4.33662 0.95C5.21995 0.616666 6.21579 0.449998 7.32412 0.449998C8.49912 0.449998 9.54495 0.641665 10.4616 1.025C11.3783 1.40833 12.0991 1.94167 12.6241 2.625C13.1575 3.3 13.4241 4.08333 13.4241 4.975C13.4241 5.8 13.1991 6.52083 12.7491 7.1375C12.2991 7.74583 11.6325 8.2 10.7491 8.5C11.7325 8.83333 12.52 9.32917 13.1116 9.9875C13.7033 10.6458 13.9991 11.4667 13.9991 12.45C13.9991 13.4083 13.7283 14.2583 13.1866 15C12.6533 15.7333 11.9033 16.3083 10.9366 16.725C9.96995 17.1417 8.84079 17.35 7.54912 17.35Z" fill="#F5914F"/>
</svg>
