
<svg xmlns="http://www.w3.org/2000/svg" fill-rule="evenodd" viewBox="0 0 100 100">
    <path d="M73.035 35.124c.701-1.014.973-2.36.742-3.702-.237-1.385-.965-2.568-2.046-3.33-2.245-1.589-5.536-1.123-7.034.992L23.421 87.471a1.501 1.501 0 0 0 .359 2.091l5.956 4.214a1.495 1.495 0 0 0 1.119.254 1.5 1.5 0 0 0 .971-.612l41.171-58.239c.013-.016.025-.035.038-.055zM30.244 90.46l-3.507-2.481 29.139-41.22 3.509 2.481-29.141 41.22zM70.56 33.428l-.04.06-9.404 13.302-3.509-2.481 9.425-13.333.109-.152c.492-.695 1.878-.977 2.859-.281.576.406.761 1.043.819 1.386.098.562-.002 1.137-.259 1.499zm-28.023-13.92a9.092 9.092 0 0 1 6.831 1.545 9.086 9.086 0 0 1 3.737 5.922 1.49 1.49 0 0 0 1.372 1.228c.215.118.449.202.705.202a1.502 1.502 0 0 0 1.481-1.754c-.854-4.973 2.498-9.715 7.475-10.571.024-.004.046-.014.069-.019.068-.011.136-.015.204-.026a1.502 1.502 0 0 0 1.225-1.732 1.503 1.503 0 0 0-1.732-1.225 9.088 9.088 0 0 1-6.831-1.547 9.09 9.09 0 0 1-3.737-5.924 1.496 1.496 0 0 0-1.356-1.236 1.5 1.5 0 0 0-.975-.171 1.5 1.5 0 0 0-1.225 1.732c.414 2.409-.136 4.835-1.547 6.832s-3.517 3.324-5.926 3.736c-.037.006-.071.021-.107.03-.057.009-.114.011-.17.021a1.502 1.502 0 0 0-1.224 1.733 1.499 1.499 0 0 0 1.731 1.224zm8.143-5.012a12.152 12.152 0 0 0 1.705-3.503 12.156 12.156 0 0 0 2.953 2.987 12.223 12.223 0 0 0 2.916 1.513 12.23 12.23 0 0 0-4.194 6.108 12.146 12.146 0 0 0-2.962-2.997 12.193 12.193 0 0 0-2.904-1.506 12.202 12.202 0 0 0 2.486-2.602zm37.33 52.81a1.503 1.503 0 0 0-1.732-1.225c-4.374.756-8.569-2.205-9.322-6.596a1.49 1.49 0 0 0-1.325-1.231 1.494 1.494 0 0 0-.946-.154 1.502 1.502 0 0 0-1.225 1.732 8.023 8.023 0 0 1-1.365 6.028 8.018 8.018 0 0 1-5.229 3.296c-.03.005-.057.017-.087.024-.053.008-.105.01-.158.019a1.5 1.5 0 0 0 .505 2.957c4.394-.756 8.573 2.203 9.325 6.589.116.681.68 1.158 1.336 1.222.209.109.435.187.68.187a1.502 1.502 0 0 0 1.481-1.753c-.753-4.386 2.203-8.567 6.591-9.323.02-.003.037-.011.056-.016.064-.01.127-.013.191-.024a1.5 1.5 0 0 0 1.224-1.732zm-10.612 6.246a11.141 11.141 0 0 0-4.925-3.754 11.102 11.102 0 0 0 3.539-5.101 11.147 11.147 0 0 0 4.917 3.749 11.168 11.168 0 0 0-3.531 5.106zM26.853 44.823c.02-.003.037-.012.057-.016.05-.008.101-.011.151-.019a1.5 1.5 0 1 0-.507-2.957 6.502 6.502 0 0 1-4.885-1.107 6.502 6.502 0 0 1-2.671-4.236 1.493 1.493 0 0 0-1.268-1.225 1.485 1.485 0 0 0-.923-.139 1.5 1.5 0 0 0-1.223 1.733 6.505 6.505 0 0 1-1.104 4.887 6.501 6.501 0 0 1-4.238 2.673c-.023.004-.043.013-.065.018-.048.007-.095.009-.142.017a1.5 1.5 0 0 0 .507 2.957c3.56-.613 6.948 1.787 7.559 5.344.113.658.646 1.121 1.273 1.21.203.101.42.173.656.173a1.5 1.5 0 0 0 1.48-1.753 6.506 6.506 0 0 1 1.106-4.887 6.494 6.494 0 0 1 4.237-2.673zm-6.686.941a9.583 9.583 0 0 0-1.109 2.09 9.631 9.631 0 0 0-3.606-2.741 9.592 9.592 0 0 0 1.478-1.638 9.547 9.547 0 0 0 1.107-2.086 9.598 9.598 0 0 0 1.9 1.784 9.581 9.581 0 0 0 1.72.943 9.49 9.49 0 0 0-1.49 1.648z"/>
</svg>
