
<svg xmlns="http://www.w3.org/2000/svg" fill-rule="evenodd" viewBox="0 0 100 100">
    <path d="M58.684 11.665a1.498 1.498 0 0 0-1.56.118l-27.503 19.81H14a1.5 1.5 0 0 0-1.5 1.5V67.06a1.5 1.5 0 0 0 1.5 1.5h15.624l27.504 19.661a1.494 1.494 0 0 0 1.558.114 1.5 1.5 0 0 0 .814-1.334v-74a1.5 1.5 0 0 0-.816-1.336zM56.5 84.084 30.977 65.839a1.497 1.497 0 0 0-.872-.28H15.501V34.592h14.604c.314 0 .622-.099.876-.283L56.5 15.929v68.155zM71.265 33.71a1.5 1.5 0 0 0-1.53 2.58C73.483 38.513 76 44.033 76 50.026c0 6.034-2.43 11.408-6.191 13.691a1.5 1.5 0 0 0 1.557 2.565C76.004 63.466 79 57.085 79 50.026c0-7.124-3.036-13.529-7.735-16.316z"/>
    <path d="M79.982 23.867a1.5 1.5 0 0 0-1.965 2.267c5.938 5.148 9.482 13.953 9.482 23.552 0 9.342-3.399 18.017-9.094 23.206a1.501 1.501 0 0 0 2.02 2.218c6.308-5.749 10.073-15.252 10.073-25.424.002-10.457-3.93-20.109-10.516-25.819z"/>
</svg>
