<svg width="64" height="106" viewBox="0 0 64 106" fill="none" xmlns="http://www.w3.org/2000/svg">
<path d="M43.1002 105.999C42.6002 105.999 42.2002 105.799 41.9002 105.399C41.4002 104.699 41.6002 103.799 42.3002 103.299C43.8002 102.299 51.8002 97.7988 56.9002 94.9988C39.5002 94.4988 25.6002 87.6988 15.6002 74.9988C-1.09981 53.6988 -1.49981 22.1988 3.20019 1.69879C3.40019 0.898789 4.20019 0.398789 5.00019 0.598789C5.80019 0.798789 6.30019 1.59879 6.10019 2.39879C1.50019 22.2988 1.90019 52.6988 17.9002 73.1988C27.4002 85.3988 40.9002 91.7988 57.8002 92.0988H58.1002L54.9002 88.0988C53.5002 86.3988 52.2002 84.7988 50.8002 82.9988C50.1002 82.0988 49.3002 81.0988 48.5002 80.0988C48.0002 79.4988 48.1002 78.4988 48.7002 77.9988C49.3002 77.4988 50.3002 77.5988 50.8002 78.1988C50.8002 78.1988 50.8002 78.2988 50.9002 78.2988L57.3002 86.1988C57.8002 86.7988 58.2002 87.2988 58.7002 87.8988C60.2002 89.6988 61.8002 91.4988 63.0002 93.3988C63.0002 93.4988 63.1002 93.4988 63.1002 93.5988C63.2002 93.7988 63.2002 93.8988 63.3002 94.0988V94.3988C63.3002 94.5988 63.3002 94.6988 63.2002 94.8988C63.2002 94.9988 63.1002 94.9988 63.1002 95.0988C63.0002 95.2988 62.9002 95.3988 62.8002 95.4988C62.7002 95.5988 62.6002 95.5988 62.5002 95.6988C62.5002 95.6988 62.4002 95.6988 62.3002 95.7988C61.4002 96.1988 46.3002 104.399 44.1002 105.899C43.7002 105.899 43.4002 105.999 43.1002 105.999Z" fill="white"/>
</svg>
