<svg width="653" height="653" viewBox="0 0 653 653" fill="none" xmlns="http://www.w3.org/2000/svg">
<path d="M133.025 157.495H133.028C133.295 157.828 133.232 158.299 132.884 158.547L131.002 159.891C130.657 160.139 130.154 160.071 129.888 159.742C129.617 159.411 129.683 158.935 130.029 158.688L131.91 157.345C132.256 157.098 132.761 157.166 133.025 157.495Z" stroke="white" stroke-width="0.161787" stroke-miterlimit="22.9256"/>
<path d="M138.482 157.462C138.749 157.791 138.683 158.267 138.336 158.515L136.456 159.857C136.107 160.106 135.609 160.037 135.338 159.706C135.074 159.374 135.139 158.904 135.484 158.655L137.363 157.311C137.713 157.064 138.211 157.131 138.482 157.462Z" stroke="white" stroke-width="0.161787" stroke-miterlimit="22.9256"/>
<path d="M144.991 157.483H144.993C145.257 157.81 145.196 158.286 144.848 158.534L142.969 159.878C142.618 160.126 142.118 160.058 141.849 159.728V159.726C141.583 159.396 141.649 158.923 141.994 158.675L143.876 157.333C144.225 157.085 144.723 157.153 144.991 157.483Z" stroke="white" stroke-width="0.161787" stroke-miterlimit="22.9256"/>
<path d="M125.497 161.312C125.763 161.643 125.702 162.112 125.352 162.36L123.473 163.707C123.125 163.955 122.624 163.887 122.358 163.555C122.087 163.224 122.155 162.754 122.501 162.505L124.382 161.161C124.728 160.913 125.229 160.981 125.497 161.312Z" stroke="white" stroke-width="0.161787" stroke-miterlimit="22.9256"/>
<path d="M132.911 161.274H132.913C133.177 161.606 133.115 162.079 132.768 162.328L130.889 163.669C130.538 163.918 130.04 163.852 129.769 163.522V163.518C129.503 163.192 129.569 162.717 129.915 162.468L131.796 161.124C132.144 160.876 132.643 160.944 132.911 161.274Z" stroke="white" stroke-width="0.161787" stroke-miterlimit="22.9256"/>
<path d="M139.023 161.258C139.29 161.589 139.226 162.064 138.881 162.308L136.999 163.652C136.653 163.9 136.148 163.832 135.884 163.502H135.882C135.613 163.172 135.68 162.7 136.025 162.455L137.909 161.109C138.253 160.86 138.753 160.929 139.023 161.258Z" stroke="white" stroke-width="0.161787" stroke-miterlimit="22.9256"/>
<path d="M145.605 161.243C145.873 161.573 145.81 162.044 145.462 162.292L143.581 163.638C143.234 163.887 142.734 163.815 142.466 163.486C142.199 163.155 142.261 162.685 142.611 162.436L144.49 161.092C144.838 160.845 145.339 160.913 145.605 161.243Z" stroke="white" stroke-width="0.161787" stroke-miterlimit="22.9256"/>
<path d="M126.364 165.11C126.628 165.439 126.565 165.913 126.218 166.164L124.339 167.504C123.989 167.751 123.491 167.686 123.22 167.353C122.954 167.023 123.02 166.555 123.366 166.307L125.247 164.96C125.595 164.712 126.094 164.78 126.364 165.11Z" stroke="white" stroke-width="0.161787" stroke-miterlimit="22.9256"/>
<path d="M132.403 165.096C132.668 165.426 132.607 165.897 132.257 166.145L130.378 167.49C130.03 167.738 129.529 167.669 129.263 167.339C128.992 167.009 129.058 166.538 129.404 166.291L131.288 164.946C131.634 164.698 132.132 164.767 132.403 165.096Z" stroke="white" stroke-width="0.161787" stroke-miterlimit="22.9256"/>
<path d="M138.325 165.096C138.593 165.426 138.528 165.897 138.184 166.145L136.3 167.49C135.954 167.738 135.454 167.669 135.184 167.339C134.919 167.009 134.981 166.538 135.326 166.291L137.208 164.946C137.556 164.698 138.059 164.767 138.325 165.096Z" stroke="white" stroke-width="0.161787" stroke-miterlimit="22.9256"/>
<path d="M152.605 157.483C152.876 157.81 152.808 158.286 152.465 158.534L150.581 159.878C150.237 160.126 149.733 160.058 149.466 159.728V159.726C149.199 159.396 149.261 158.923 149.611 158.675L151.49 157.333C151.836 157.085 152.341 157.153 152.605 157.483Z" stroke="white" stroke-width="0.161787" stroke-miterlimit="22.9256"/>
<path d="M145.093 165.096C145.364 165.426 145.297 165.897 144.952 166.145L143.068 167.49C142.724 167.738 142.224 167.669 141.953 167.339C141.687 167.009 141.751 166.538 142.099 166.291L143.978 164.946C144.324 164.698 144.829 164.767 145.093 165.096Z" stroke="white" stroke-width="0.161787" stroke-miterlimit="22.9256"/>
<path d="M153.221 161.243C153.488 161.573 153.427 162.044 153.08 162.292L151.199 163.638C150.851 163.887 150.348 163.815 150.082 163.486C149.814 163.155 149.878 162.685 150.223 162.436L152.107 161.092C152.452 160.845 152.955 160.913 153.221 161.243Z" stroke="white" stroke-width="0.161787" stroke-miterlimit="22.9256"/>
<path d="M197.335 157.495C197.605 157.828 197.539 158.299 197.191 158.547L195.309 159.891C194.964 160.139 194.463 160.071 194.195 159.742H194.193C193.928 159.411 193.99 158.935 194.34 158.688L196.22 157.345C196.567 157.098 197.068 157.166 197.335 157.495Z" stroke="white" stroke-width="0.161787" stroke-miterlimit="22.9256"/>
<path d="M202.79 157.462C203.057 157.791 202.995 158.267 202.645 158.515L200.768 159.857C200.42 160.106 199.917 160.037 199.651 159.706C199.38 159.374 199.448 158.904 199.792 158.655L201.676 157.311C202.021 157.064 202.522 157.131 202.79 157.462Z" stroke="white" stroke-width="0.161787" stroke-miterlimit="22.9256"/>
<path d="M209.299 157.483C209.57 157.81 209.506 158.286 209.158 158.534L207.277 159.878C206.931 160.126 206.427 160.058 206.162 159.728V159.726C205.891 159.396 205.955 158.923 206.303 158.675L208.185 157.333C208.531 157.085 209.036 157.153 209.299 157.483Z" stroke="white" stroke-width="0.161787" stroke-miterlimit="22.9256"/>
<path d="M189.806 161.312C190.076 161.643 190.01 162.112 189.664 162.36L187.783 163.707C187.437 163.955 186.932 163.887 186.668 163.555H186.666C186.398 163.224 186.461 162.754 186.809 162.505L188.691 161.161C189.036 160.913 189.539 160.981 189.806 161.312Z" stroke="white" stroke-width="0.161787" stroke-miterlimit="22.9256"/>
<path d="M197.218 161.274C197.489 161.606 197.425 162.079 197.077 162.328L195.196 163.669C194.85 163.918 194.345 163.852 194.081 163.522V163.518C193.81 163.192 193.877 162.717 194.222 162.468L196.103 161.124C196.449 160.876 196.954 160.944 197.218 161.274Z" stroke="white" stroke-width="0.161787" stroke-miterlimit="22.9256"/>
<path d="M203.331 161.258H203.332C203.601 161.589 203.535 162.064 203.189 162.308L201.308 163.652C200.962 163.9 200.461 163.832 200.191 163.502C199.922 163.172 199.988 162.7 200.334 162.455L202.215 161.109C202.564 160.86 203.067 160.929 203.331 161.258Z" stroke="white" stroke-width="0.161787" stroke-miterlimit="22.9256"/>
<path d="M209.918 161.243C210.182 161.573 210.121 162.044 209.773 162.292L207.894 163.638C207.544 163.887 207.043 163.815 206.777 163.486C206.508 163.155 206.574 162.685 206.92 162.436L208.802 161.092C209.147 160.845 209.648 160.913 209.918 161.243Z" stroke="white" stroke-width="0.161787" stroke-miterlimit="22.9256"/>
<path d="M190.672 165.11C190.94 165.439 190.876 165.913 190.528 166.164L188.65 167.504C188.301 167.751 187.796 167.686 187.533 167.353C187.262 167.023 187.327 166.555 187.674 166.307L189.557 164.96C189.901 164.712 190.406 164.78 190.672 165.11Z" stroke="white" stroke-width="0.161787" stroke-miterlimit="22.9256"/>
<path d="M196.712 165.096C196.981 165.426 196.916 165.897 196.571 166.145L194.687 167.49C194.341 167.738 193.839 167.669 193.573 167.339C193.304 167.009 193.367 166.538 193.714 166.291L195.597 164.946C195.942 164.698 196.446 164.767 196.712 165.096Z" stroke="white" stroke-width="0.161787" stroke-miterlimit="22.9256"/>
<path d="M202.636 165.096C202.902 165.426 202.838 165.897 202.49 166.145L200.609 167.49C200.263 167.738 199.765 167.669 199.494 167.339C199.228 167.009 199.293 166.538 199.639 166.291L201.52 164.946C201.867 164.698 202.367 164.767 202.636 165.096Z" stroke="white" stroke-width="0.161787" stroke-miterlimit="22.9256"/>
<path d="M216.069 157.483C216.34 157.81 216.274 158.286 215.928 158.534L214.044 159.878C213.699 160.126 213.196 160.058 212.93 159.728V159.726C212.661 159.396 212.725 158.923 213.073 158.675L214.954 157.333C215.3 157.085 215.803 157.153 216.069 157.483Z" stroke="white" stroke-width="0.161787" stroke-miterlimit="22.9256"/>
<path d="M209.406 165.096C209.672 165.426 209.611 165.897 209.26 166.145L207.381 167.49C207.033 167.738 206.533 167.669 206.264 167.339H206.262C205.998 167.009 206.062 166.538 206.41 166.291L208.291 164.946C208.637 164.698 209.135 164.767 209.406 165.096Z" stroke="white" stroke-width="0.161787" stroke-miterlimit="22.9256"/>
<path d="M216.685 161.243C216.951 161.573 216.89 162.044 216.539 162.292L214.662 163.638C214.315 163.887 213.811 163.815 213.545 163.486C213.274 163.155 213.343 162.685 213.687 162.436L215.57 161.092C215.916 160.845 216.416 160.913 216.685 161.243Z" stroke="white" stroke-width="0.161787" stroke-miterlimit="22.9256"/>
<path d="M159.376 157.483C159.644 157.81 159.578 158.286 159.235 158.534L157.351 159.878C157.005 160.126 156.505 160.058 156.234 159.728V159.726C155.97 159.396 156.032 158.923 156.377 158.675L158.259 157.333C158.606 157.085 159.11 157.153 159.376 157.483Z" stroke="white" stroke-width="0.161787" stroke-miterlimit="22.9256"/>
<path d="M152.712 165.096C152.978 165.426 152.914 165.897 152.566 166.145L150.687 167.49C150.341 167.738 149.836 167.669 149.571 167.339H149.57C149.301 167.009 149.367 166.538 149.713 166.291L151.596 164.946C151.94 164.698 152.441 164.767 152.712 165.096Z" stroke="white" stroke-width="0.161787" stroke-miterlimit="22.9256"/>
<path d="M159.99 161.243C160.261 161.573 160.197 162.044 159.849 162.292L157.968 163.638C157.622 163.887 157.119 163.815 156.853 163.486C156.582 163.155 156.648 162.685 156.994 162.436L158.875 161.092C159.221 160.845 159.726 160.913 159.99 161.243Z" stroke="white" stroke-width="0.161787" stroke-miterlimit="22.9256"/>
<path d="M222.838 157.483H222.84C223.109 157.81 223.045 158.286 222.696 158.534L220.816 159.878C220.47 160.126 219.966 160.058 219.701 159.728V159.726C219.434 159.396 219.495 158.923 219.842 158.675L221.723 157.333C222.069 157.085 222.574 157.153 222.838 157.483Z" stroke="white" stroke-width="0.161787" stroke-miterlimit="22.9256"/>
<path d="M216.177 165.096C216.441 165.426 216.377 165.897 216.032 166.145L214.152 167.49C213.802 167.738 213.304 167.669 213.033 167.339C212.767 167.009 212.832 166.538 213.178 166.291L215.06 164.946C215.408 164.698 215.906 164.767 216.177 165.096Z" stroke="white" stroke-width="0.161787" stroke-miterlimit="22.9256"/>
<path d="M224.299 161.243C224.57 161.573 224.502 162.044 224.156 162.292L222.275 163.638C221.928 163.887 221.429 163.815 221.159 163.486H221.157C220.893 163.155 220.955 162.685 221.305 162.436L223.182 161.092C223.532 160.845 224.033 160.913 224.299 161.243Z" stroke="white" stroke-width="0.161787" stroke-miterlimit="22.9256"/>
<path d="M438.194 157.495C438.464 157.828 438.396 158.299 438.051 158.547L436.169 159.891C435.823 160.139 435.323 160.071 435.051 159.742C434.788 159.411 434.849 158.935 435.2 158.688L437.076 157.345C437.427 157.098 437.927 157.166 438.194 157.495Z" stroke="white" stroke-width="0.161787" stroke-miterlimit="22.9256"/>
<path d="M443.648 157.462C443.914 157.791 443.853 158.267 443.502 158.515L441.623 159.857C441.277 160.106 440.775 160.037 440.508 159.706C440.238 159.374 440.304 158.904 440.65 158.655L442.534 157.311C442.879 157.064 443.379 157.131 443.648 157.462Z" stroke="white" stroke-width="0.161787" stroke-miterlimit="22.9256"/>
<path d="M450.157 157.483C450.428 157.81 450.361 158.286 450.016 158.534L448.135 159.878C447.789 160.126 447.284 160.058 447.02 159.728L447.018 159.726C446.749 159.396 446.813 158.923 447.161 158.675L449.042 157.333C449.388 157.085 449.891 157.153 450.157 157.483Z" stroke="white" stroke-width="0.161787" stroke-miterlimit="22.9256"/>
<path d="M430.663 161.312C430.932 161.643 430.867 162.112 430.522 162.36L428.641 163.707C428.292 163.955 427.79 163.887 427.524 163.555C427.255 163.224 427.319 162.754 427.665 162.505L429.548 161.161C429.894 160.913 430.397 160.981 430.663 161.312Z" stroke="white" stroke-width="0.161787" stroke-miterlimit="22.9256"/>
<path d="M438.076 161.274C438.347 161.606 438.281 162.079 437.935 162.328L436.054 163.669C435.708 163.918 435.203 163.852 434.939 163.522L434.937 163.518C434.668 163.192 434.735 162.717 435.08 162.468L436.961 161.124C437.307 160.876 437.81 160.944 438.076 161.274Z" stroke="white" stroke-width="0.161787" stroke-miterlimit="22.9256"/>
<path d="M444.187 161.258C444.459 161.589 444.392 162.064 444.046 162.308L442.164 163.652C441.82 163.9 441.32 163.832 441.048 163.502C440.779 163.172 440.846 162.7 441.192 162.455L443.073 161.109C443.419 160.86 443.924 160.929 444.187 161.258Z" stroke="white" stroke-width="0.161787" stroke-miterlimit="22.9256"/>
<path d="M450.773 161.243H450.776C451.04 161.573 450.979 162.044 450.631 162.292L448.751 163.638C448.401 163.887 447.901 163.815 447.634 163.486C447.366 163.155 447.432 162.685 447.777 162.436L449.659 161.092C450.005 160.845 450.505 160.913 450.773 161.243Z" stroke="white" stroke-width="0.161787" stroke-miterlimit="22.9256"/>
<path d="M431.529 165.11C431.798 165.439 431.734 165.913 431.386 166.164L429.505 167.504C429.159 167.751 428.654 167.686 428.39 167.353C428.119 167.023 428.185 166.555 428.531 166.307L430.414 164.96C430.758 164.712 431.263 164.78 431.529 165.11Z" stroke="white" stroke-width="0.161787" stroke-miterlimit="22.9256"/>
<path d="M437.568 165.096C437.839 165.426 437.775 165.897 437.427 166.145L435.546 167.49C435.2 167.738 434.697 167.669 434.431 167.339C434.16 167.009 434.226 166.538 434.572 166.291L436.456 164.946C436.801 164.698 437.304 164.767 437.568 165.096Z" stroke="white" stroke-width="0.161787" stroke-miterlimit="22.9256"/>
<path d="M443.493 165.096C443.76 165.426 443.696 165.897 443.348 166.145L441.467 167.49C441.121 167.738 440.62 167.669 440.352 167.339C440.085 167.009 440.15 166.538 440.497 166.291L442.378 164.946C442.725 164.698 443.225 164.767 443.493 165.096Z" stroke="white" stroke-width="0.161787" stroke-miterlimit="22.9256"/>
<path d="M457.773 157.483H457.776C458.039 157.81 457.975 158.286 457.629 158.534L455.751 159.878C455.401 160.126 454.902 160.058 454.631 159.728V159.726C454.367 159.396 454.431 158.923 454.777 158.675L456.658 157.333C457.004 157.085 457.505 157.153 457.773 157.483Z" stroke="white" stroke-width="0.161787" stroke-miterlimit="22.9256"/>
<path d="M450.264 165.096C450.528 165.426 450.464 165.897 450.118 166.145L448.239 167.49C447.891 167.738 447.391 167.669 447.12 167.339C446.856 167.009 446.919 166.538 447.265 166.291L449.146 164.946C449.495 164.698 449.993 164.767 450.264 165.096Z" stroke="white" stroke-width="0.161787" stroke-miterlimit="22.9256"/>
<path d="M458.389 161.243C458.659 161.573 458.593 162.044 458.247 162.292L456.364 163.638C456.018 163.887 455.515 163.815 455.248 163.486C454.983 163.155 455.044 162.685 455.395 162.436L457.273 161.092C457.619 160.845 458.124 160.913 458.389 161.243Z" stroke="white" stroke-width="0.161787" stroke-miterlimit="22.9256"/>
<path d="M502.503 157.495C502.769 157.828 502.708 158.299 502.358 158.547L500.481 159.891C500.13 160.139 499.63 160.071 499.363 159.742C499.093 159.411 499.161 158.935 499.507 158.688L501.388 157.345C501.736 157.098 502.234 157.166 502.503 157.495Z" stroke="white" stroke-width="0.161787" stroke-miterlimit="22.9256"/>
<path d="M507.957 157.462C508.226 157.791 508.162 158.267 507.816 158.515L505.933 159.857C505.587 160.106 505.084 160.037 504.818 159.706C504.551 159.374 504.613 158.904 504.959 158.655L506.84 157.311C507.188 157.064 507.691 157.131 507.957 157.462Z" stroke="white" stroke-width="0.161787" stroke-miterlimit="22.9256"/>
<path d="M514.465 157.483H514.467C514.736 157.81 514.67 158.286 514.324 158.534L512.443 159.878C512.094 160.126 511.596 160.058 511.325 159.728V159.726C511.061 159.396 511.123 158.923 511.471 158.675L513.35 157.333C513.7 157.085 514.201 157.153 514.465 157.483Z" stroke="white" stroke-width="0.161787" stroke-miterlimit="22.9256"/>
<path d="M494.972 161.312C495.243 161.643 495.177 162.112 494.831 162.36L492.95 163.707C492.601 163.955 492.103 163.887 491.832 163.555C491.566 163.224 491.63 162.754 491.978 162.505L493.857 161.161C494.205 160.913 494.705 160.981 494.972 161.312Z" stroke="white" stroke-width="0.161787" stroke-miterlimit="22.9256"/>
<path d="M502.384 161.274H502.387C502.656 161.606 502.589 162.079 502.243 162.328L500.362 163.669C500.017 163.918 499.516 163.852 499.246 163.522V163.518C498.981 163.192 499.043 162.717 499.391 162.468L501.27 161.124C501.615 160.876 502.12 160.944 502.384 161.274Z" stroke="white" stroke-width="0.161787" stroke-miterlimit="22.9256"/>
<path d="M508.5 161.258C508.766 161.589 508.7 162.064 508.354 162.308L506.473 163.652C506.127 163.9 505.627 163.832 505.356 163.502C505.092 163.172 505.155 162.7 505.504 162.455L507.38 161.109C507.731 160.86 508.229 160.929 508.5 161.258Z" stroke="white" stroke-width="0.161787" stroke-miterlimit="22.9256"/>
<path d="M515.082 161.243C515.353 161.573 515.287 162.044 514.941 162.292L513.06 163.638C512.714 163.887 512.209 163.815 511.945 163.486C511.675 163.155 511.738 162.685 512.086 162.436L513.968 161.092C514.313 160.845 514.818 160.913 515.082 161.243Z" stroke="white" stroke-width="0.161787" stroke-miterlimit="22.9256"/>
<path d="M495.838 165.11C496.107 165.439 496.041 165.913 495.698 166.164L493.814 167.504C493.468 167.751 492.967 167.686 492.697 167.353C492.433 167.023 492.494 166.555 492.841 166.307L494.721 164.96C495.072 164.712 495.572 164.78 495.838 165.11Z" stroke="white" stroke-width="0.161787" stroke-miterlimit="22.9256"/>
<path d="M501.879 165.096C502.15 165.426 502.082 165.897 501.738 166.145L499.854 167.49C499.508 167.738 499.008 167.669 498.739 167.339C498.473 167.009 498.534 166.538 498.885 166.291L500.764 164.946C501.112 164.698 501.612 164.767 501.879 165.096Z" stroke="white" stroke-width="0.161787" stroke-miterlimit="22.9256"/>
<path d="M507.803 165.096C508.067 165.426 508.006 165.897 507.66 166.145L505.779 167.49C505.431 167.738 504.928 167.669 504.662 167.339C504.393 167.009 504.459 166.538 504.803 166.291L506.686 164.946C507.032 164.698 507.533 164.767 507.803 165.096Z" stroke="white" stroke-width="0.161787" stroke-miterlimit="22.9256"/>
<path d="M521.236 157.483C521.507 157.81 521.44 158.286 521.095 158.534L519.212 159.878C518.865 160.126 518.365 160.058 518.097 159.728V159.726C517.83 159.396 517.892 158.923 518.242 158.675L520.121 157.333C520.469 157.085 520.97 157.153 521.236 157.483Z" stroke="white" stroke-width="0.161787" stroke-miterlimit="22.9256"/>
<path d="M514.573 165.096C514.838 165.426 514.777 165.897 514.429 166.145L512.55 167.49C512.202 167.738 511.699 167.669 511.433 167.339C511.162 167.009 511.228 166.538 511.574 166.291L513.457 164.946C513.801 164.698 514.306 164.767 514.573 165.096Z" stroke="white" stroke-width="0.161787" stroke-miterlimit="22.9256"/>
<path d="M521.852 161.243C522.12 161.573 522.056 162.044 521.711 162.292L519.828 163.638C519.481 163.887 518.979 163.815 518.712 163.486C518.446 163.155 518.507 162.685 518.853 162.436L520.735 161.092C521.083 160.845 521.586 160.913 521.852 161.243Z" stroke="white" stroke-width="0.161787" stroke-miterlimit="22.9256"/>
<path d="M464.545 157.483C464.811 157.81 464.749 158.286 464.399 158.534L462.517 159.878C462.171 160.126 461.671 160.058 461.403 159.728V159.726C461.136 159.396 461.2 158.923 461.548 158.675L463.429 157.333C463.776 157.085 464.276 157.153 464.545 157.483Z" stroke="white" stroke-width="0.161787" stroke-miterlimit="22.9256"/>
<path d="M457.875 165.096C458.145 165.426 458.08 165.897 457.734 166.145L455.853 167.49C455.507 167.738 455.004 167.669 454.738 167.339C454.467 167.009 454.533 166.538 454.879 166.291L456.76 164.946C457.106 164.698 457.612 164.767 457.875 165.096Z" stroke="white" stroke-width="0.161787" stroke-miterlimit="22.9256"/>
<path d="M465.158 161.243C465.428 161.573 465.361 162.044 465.015 162.292L463.134 163.638C462.789 163.887 462.287 163.815 462.017 163.486C461.753 163.155 461.814 162.685 462.161 162.436L464.042 161.092C464.392 160.845 464.893 160.913 465.158 161.243Z" stroke="white" stroke-width="0.161787" stroke-miterlimit="22.9256"/>
<path d="M528.008 157.483C528.275 157.81 528.209 158.286 527.863 158.534L525.982 159.878C525.635 160.126 525.135 160.058 524.864 159.728V159.726C524.6 159.396 524.662 158.923 525.012 158.675L526.889 157.333C527.239 157.085 527.74 157.153 528.008 157.483Z" stroke="white" stroke-width="0.161787" stroke-miterlimit="22.9256"/>
<path d="M521.341 165.096C521.613 165.426 521.548 165.897 521.2 166.145L519.319 167.49C518.973 167.738 518.467 167.669 518.204 167.339C517.934 167.009 518 166.538 518.345 166.291L520.229 164.946C520.572 164.698 521.075 164.767 521.341 165.096Z" stroke="white" stroke-width="0.161787" stroke-miterlimit="22.9256"/>
<path d="M529.469 161.243C529.736 161.573 529.674 162.044 529.324 162.292L527.447 163.638C527.097 163.887 526.596 163.815 526.328 163.486C526.062 163.155 526.127 162.685 526.473 162.436L528.355 161.092C528.7 160.845 529.201 160.913 529.469 161.243Z" stroke="white" stroke-width="0.161787" stroke-miterlimit="22.9256"/>
<path d="M315.676 157.666C315.942 157.997 315.877 158.467 315.53 158.713L313.649 160.059C313.303 160.307 312.803 160.239 312.534 159.909C312.268 159.58 312.329 159.106 312.68 158.861L314.557 157.514C314.907 157.268 315.405 157.337 315.676 157.666Z" stroke="white" stroke-width="0.161787" stroke-miterlimit="22.9256"/>
<path d="M321.129 157.63V157.634C321.395 157.965 321.333 158.438 320.983 158.684L319.105 160.028C318.758 160.275 318.256 160.208 317.989 159.878C317.719 159.548 317.785 159.072 318.13 158.826L320.014 157.482C320.36 157.236 320.863 157.305 321.129 157.63Z" stroke="white" stroke-width="0.161787" stroke-miterlimit="22.9256"/>
<path d="M327.637 157.649C327.908 157.982 327.842 158.451 327.496 158.699L325.615 160.046C325.269 160.294 324.764 160.225 324.5 159.896C324.229 159.565 324.293 159.092 324.641 158.844L326.522 157.5C326.868 157.252 327.371 157.32 327.637 157.649Z" stroke="white" stroke-width="0.161787" stroke-miterlimit="22.9256"/>
<path d="M308.144 161.478C308.414 161.808 308.348 162.284 308.003 162.531L306.119 163.871C305.773 164.119 305.27 164.054 305.004 163.721C304.736 163.392 304.799 162.92 305.148 162.673L307.026 161.328C307.375 161.08 307.878 161.149 308.144 161.478Z" stroke="white" stroke-width="0.161787" stroke-miterlimit="22.9256"/>
<path d="M315.557 161.446C315.829 161.777 315.765 162.247 315.417 162.496L313.536 163.84C313.19 164.088 312.684 164.02 312.42 163.69H312.418C312.149 163.36 312.214 162.884 312.561 162.636L314.443 161.297C314.788 161.048 315.291 161.115 315.557 161.446Z" stroke="white" stroke-width="0.161787" stroke-miterlimit="22.9256"/>
<path d="M321.667 161.427C321.938 161.761 321.872 162.232 321.526 162.48L319.645 163.825C319.299 164.072 318.799 164.004 318.528 163.674V163.67C318.261 163.34 318.325 162.868 318.671 162.62L320.552 161.276C320.898 161.028 321.403 161.097 321.667 161.427Z" stroke="white" stroke-width="0.161787" stroke-miterlimit="22.9256"/>
<path d="M328.253 161.407H328.256C328.521 161.74 328.459 162.211 328.113 162.459L326.232 163.803C325.881 164.052 325.381 163.983 325.115 163.653C324.846 163.323 324.912 162.852 325.258 162.604L327.139 161.258C327.485 161.01 327.986 161.078 328.253 161.407Z" stroke="white" stroke-width="0.161787" stroke-miterlimit="22.9256"/>
<path d="M309.008 165.278C309.278 165.61 309.215 166.083 308.867 166.332L306.985 167.674C306.64 167.921 306.137 167.855 305.87 167.525C305.6 167.191 305.665 166.72 306.012 166.472L307.893 165.128C308.239 164.88 308.744 164.948 309.008 165.278Z" stroke="white" stroke-width="0.161787" stroke-miterlimit="22.9256"/>
<path d="M315.047 165.264H315.049C315.317 165.595 315.254 166.069 314.908 166.318L313.025 167.658C312.679 167.906 312.176 167.842 311.909 167.508C311.643 167.178 311.705 166.707 312.05 166.459L313.932 165.114C314.28 164.866 314.783 164.935 315.047 165.264Z" stroke="white" stroke-width="0.161787" stroke-miterlimit="22.9256"/>
<path d="M320.973 165.264C321.24 165.595 321.178 166.069 320.828 166.318L318.947 167.658C318.601 167.906 318.1 167.842 317.832 167.508C317.565 167.178 317.632 166.707 317.977 166.459L319.858 165.114C320.204 164.866 320.706 164.935 320.973 165.264Z" stroke="white" stroke-width="0.161787" stroke-miterlimit="22.9256"/>
<path d="M335.257 157.649C335.521 157.982 335.457 158.451 335.111 158.699L333.232 160.046C332.882 160.294 332.383 160.225 332.113 159.896C331.846 159.565 331.913 159.092 332.258 158.844L334.139 157.5C334.487 157.252 334.986 157.32 335.257 157.649Z" stroke="white" stroke-width="0.161787" stroke-miterlimit="22.9256"/>
<path d="M327.746 165.264C328.011 165.595 327.945 166.069 327.599 166.318L325.72 167.658C325.373 167.906 324.872 167.842 324.605 167.508H324.601C324.334 167.178 324.401 166.707 324.749 166.459L326.629 165.114C326.976 164.866 327.474 164.935 327.746 165.264Z" stroke="white" stroke-width="0.161787" stroke-miterlimit="22.9256"/>
<path d="M335.869 161.407C336.14 161.74 336.074 162.211 335.727 162.459L333.844 163.803C333.498 164.052 332.997 163.983 332.729 163.653C332.463 163.323 332.524 162.852 332.875 162.604L334.754 161.258C335.1 161.01 335.603 161.078 335.869 161.407Z" stroke="white" stroke-width="0.161787" stroke-miterlimit="22.9256"/>
<path d="M342.024 157.649C342.29 157.982 342.228 158.451 341.879 158.699L339.997 160.046C339.651 160.294 339.153 160.225 338.882 159.896C338.616 159.565 338.682 159.092 339.028 158.844L340.909 157.5C341.255 157.252 341.756 157.32 342.024 157.649Z" stroke="white" stroke-width="0.161787" stroke-miterlimit="22.9256"/>
<path d="M335.355 165.264H335.358C335.626 165.595 335.56 166.069 335.216 166.318L333.333 167.658C332.987 167.906 332.484 167.842 332.218 167.508C331.952 167.178 332.013 166.707 332.359 166.459L334.24 165.114C334.588 164.866 335.092 164.935 335.355 165.264Z" stroke="white" stroke-width="0.161787" stroke-miterlimit="22.9256"/>
<path d="M342.639 161.407C342.91 161.74 342.841 162.211 342.496 162.459L340.614 163.803C340.266 164.052 339.768 163.983 339.499 163.653H339.497C339.233 163.323 339.294 162.852 339.645 162.604L341.522 161.258C341.872 161.01 342.373 161.078 342.639 161.407Z" stroke="white" stroke-width="0.161787" stroke-miterlimit="22.9256"/>
<path d="M65.7146 461.886V467.944H74.51V461.886H79.2812V478.47H74.51V471.902H65.7146V478.47H60.9434V461.886H65.7146ZM89.667 472.202H95.9956L93.2698 465.814H92.5228L89.667 472.202ZM96.4174 461.886L104.045 478.47H98.9811L97.8459 476.041H87.9138L86.8096 478.47H81.682L89.4716 461.886H96.4171H96.4174ZM108.167 461.886L110.633 468.663C110.784 469.063 111.088 469.263 111.542 469.263H116.086L118.78 461.886H123.68L118.876 474.931C118.682 475.451 118.411 475.925 118.066 476.356C117.719 476.785 117.313 477.155 116.848 477.465C116.383 477.775 115.875 478.02 115.323 478.199C114.771 478.379 114.192 478.47 113.586 478.47H108.296V474.751H113.391C113.954 474.751 114.344 474.481 114.561 473.941L114.788 473.221H111.347C109.919 473.221 108.794 472.936 107.972 472.366C107.149 471.796 106.522 470.912 106.089 469.713L103.234 461.885H108.167V461.886ZM130.788 461.886V468.203C130.788 469.209 131.047 469.943 131.572 470.418C132.091 470.888 132.844 471.122 133.817 471.122H138.902V461.886H143.672V478.47H138.902V475.081H133.255C132.172 475.081 131.188 474.921 130.3 474.602C129.414 474.281 128.652 473.837 128.013 473.267C127.374 472.697 126.882 472.007 126.537 471.198C126.19 470.388 126.017 469.494 126.017 468.514V461.887H130.788V461.886ZM151.658 461.886V467.944H160.453V461.886H165.223V478.47H160.453V471.902H151.658V478.47H146.886V461.886H151.658ZM172.916 470.193C172.916 470.952 173.05 471.637 173.321 472.247C173.592 472.856 173.971 473.376 174.457 473.806C174.944 474.236 175.507 474.566 176.145 474.796C176.783 475.026 177.48 475.141 178.238 475.141C178.974 475.141 179.666 475.026 180.315 474.796C180.964 474.566 181.527 474.236 182.003 473.806C182.479 473.376 182.853 472.856 183.122 472.247C183.394 471.637 183.528 470.952 183.528 470.193C183.528 469.433 183.394 468.749 183.122 468.139C182.853 467.529 182.479 467.009 182.003 466.579C181.527 466.15 180.964 465.82 180.315 465.59C179.666 465.36 178.974 465.245 178.238 465.245C177.48 465.245 176.783 465.36 176.145 465.59C175.506 465.82 174.944 466.15 174.457 466.579C173.971 467.01 173.592 467.529 173.321 468.139C173.05 468.749 172.916 469.433 172.916 470.193ZM188.299 470.193C188.299 471.492 188.024 472.677 187.471 473.747C186.92 474.816 186.189 475.731 185.27 476.491C184.35 477.251 183.286 477.839 182.063 478.259C180.839 478.68 179.563 478.889 178.221 478.889C176.881 478.889 175.604 478.68 174.381 478.259C173.163 477.839 172.093 477.25 171.173 476.491C170.253 475.731 169.523 474.816 168.971 473.747C168.419 472.677 168.144 471.492 168.144 470.193C168.144 468.893 168.419 467.709 168.971 466.639C169.523 465.569 170.254 464.655 171.173 463.895C172.093 463.135 173.163 462.546 174.381 462.126C175.604 461.706 176.88 461.496 178.221 461.496C179.562 461.496 180.839 461.706 182.063 462.126C183.286 462.546 184.35 463.136 185.27 463.895C186.189 464.655 186.92 465.569 187.471 466.639C188.024 467.709 188.299 468.893 188.299 470.193ZM221.858 461.886V478.47H217.088V465.785H208.811V478.47H204.041V461.886H221.858ZM235.501 461.886C236.582 461.886 237.583 462.046 238.502 462.366C239.418 462.686 240.207 463.136 240.867 463.715C241.521 464.295 242.041 464.99 242.419 465.799C242.798 466.609 242.987 467.503 242.987 468.483C242.987 469.463 242.798 470.352 242.419 471.152C242.041 471.952 241.526 472.631 240.867 473.191C240.207 473.751 239.423 474.181 238.502 474.481C237.583 474.781 236.587 474.931 235.506 474.931H229.68V478.47H224.91V461.886H235.501ZM229.68 470.912H235.328C236.172 470.912 236.864 470.713 237.405 470.313C237.945 469.913 238.217 469.303 238.217 468.484C238.217 467.684 237.945 467.054 237.405 466.595C236.864 466.135 236.172 465.905 235.328 465.905H229.68V470.912ZM250.161 470.193C250.161 470.952 250.295 471.637 250.566 472.247C250.836 472.856 251.215 473.376 251.702 473.806C252.189 474.236 252.752 474.566 253.389 474.796C254.028 475.026 254.725 475.141 255.482 475.141C256.218 475.141 256.911 475.026 257.56 474.796C258.209 474.566 258.772 474.236 259.247 473.806C259.724 473.376 260.097 472.856 260.367 472.247C260.638 471.637 260.773 470.952 260.773 470.193C260.773 469.433 260.638 468.749 260.367 468.139C260.097 467.529 259.724 467.009 259.247 466.579C258.772 466.15 258.209 465.82 257.56 465.59C256.911 465.36 256.218 465.245 255.482 465.245C254.725 465.245 254.028 465.36 253.389 465.59C252.752 465.82 252.189 466.15 251.702 466.579C251.215 467.01 250.836 467.529 250.566 468.139C250.295 468.749 250.161 469.433 250.161 470.193ZM265.544 470.193C265.544 471.492 265.268 472.677 264.716 473.747C264.164 474.816 263.434 475.731 262.515 476.491C261.595 477.251 260.53 477.839 259.306 478.259C258.084 478.68 256.807 478.889 255.466 478.889C254.124 478.889 252.848 478.68 251.626 478.259C250.408 477.839 249.338 477.25 248.418 476.491C247.498 475.731 246.768 474.816 246.217 473.747C245.664 472.677 245.389 471.492 245.389 470.193C245.389 468.893 245.664 467.709 246.217 466.639C246.768 465.569 247.499 464.655 248.418 463.895C249.338 463.135 250.408 462.546 251.626 462.126C252.848 461.706 254.124 461.496 255.466 461.496C256.807 461.496 258.084 461.706 259.306 462.126C260.53 462.546 261.595 463.136 262.515 463.895C263.435 464.655 264.164 465.569 264.716 466.639C265.268 467.709 265.544 468.893 265.544 470.193ZM273.236 461.886V472.412L282.648 461.886H287.224V478.47H282.453V468.003L273.041 478.47H268.465V461.886H273.236ZM302.544 467.884C302.868 467.884 303.09 467.799 303.209 467.629C303.328 467.459 303.388 467.224 303.388 466.924C303.388 466.424 303.063 466.039 302.414 465.769C301.764 465.5 300.759 465.364 299.395 465.364C298.573 465.364 297.854 465.39 297.236 465.439C296.62 465.489 296.053 465.579 295.533 465.709C295.013 465.839 294.506 466.019 294.008 466.249C293.51 466.479 292.969 466.764 292.385 467.104L290.406 463.955C291.141 463.476 291.861 463.08 292.563 462.77C293.267 462.461 293.981 462.21 294.706 462.021C295.431 461.83 296.172 461.696 296.929 461.616C297.687 461.536 298.477 461.496 299.298 461.496C302.566 461.496 304.935 462.046 306.406 463.145C307.618 464.025 308.224 465.254 308.224 466.834C308.224 467.294 308.132 467.743 307.947 468.183C307.764 468.622 307.498 468.963 307.152 469.203C307.856 469.663 308.397 470.197 308.77 470.807C309.142 471.416 309.328 472.191 309.328 473.131C309.328 473.991 309.11 474.765 308.682 475.455C308.25 476.145 307.639 476.769 306.844 477.329C306.005 477.909 304.956 478.314 303.691 478.544C302.429 478.774 301.007 478.889 299.428 478.889C298.41 478.889 297.475 478.839 296.62 478.739C295.766 478.639 294.96 478.484 294.203 478.274C293.445 478.063 292.704 477.789 291.979 477.449C291.254 477.109 290.524 476.699 289.789 476.219L291.963 472.981C293.045 473.64 294.218 474.145 295.484 474.495C296.751 474.845 298.13 475.02 299.622 475.02C300.358 475.02 301.034 474.989 301.651 474.93C302.267 474.87 302.787 474.765 303.208 474.615C303.63 474.465 303.961 474.25 304.199 473.97C304.437 473.69 304.556 473.34 304.556 472.92C304.556 472.5 304.405 472.201 304.102 472.02C303.798 471.84 303.247 471.751 302.446 471.751H295.176V467.882H302.544V467.884ZM323.64 461.886C324.44 461.886 325.187 461.996 325.879 462.215C326.572 462.436 327.167 462.746 327.664 463.145C328.162 463.546 328.551 464.025 328.833 464.585C329.114 465.145 329.254 465.775 329.254 466.474C329.254 466.994 329.152 467.489 328.946 467.959C328.741 468.428 328.421 468.803 327.989 469.083C328.768 469.503 329.373 470.038 329.806 470.687C330.238 471.337 330.455 472.191 330.455 473.251C330.455 473.971 330.303 474.65 330.001 475.291C329.698 475.93 329.282 476.485 328.75 476.954C328.221 477.425 327.599 477.794 326.884 478.064C326.171 478.334 325.403 478.469 324.581 478.469H311.988V461.885H323.64V461.886ZM316.76 468.064H323.607C323.845 468.064 324.067 467.949 324.273 467.719C324.479 467.489 324.581 467.234 324.581 466.954C324.581 466.734 324.5 466.494 324.337 466.234C324.175 465.974 323.878 465.844 323.445 465.844H316.76V468.063V468.064ZM316.76 474.512H324.451C324.819 474.512 325.133 474.401 325.393 474.176C325.652 473.957 325.782 473.641 325.782 473.236C325.782 472.852 325.647 472.532 325.376 472.282C325.106 472.027 324.754 471.902 324.321 471.902H316.76V474.511V474.512ZM337.661 470.193C337.661 470.953 337.796 471.638 338.066 472.247C338.337 472.857 338.716 473.377 339.202 473.806C339.689 474.236 340.252 474.566 340.89 474.796C341.528 475.026 342.226 475.141 342.983 475.141C343.719 475.141 344.411 475.026 345.061 474.796C345.71 474.566 346.273 474.236 346.748 473.806C347.224 473.376 347.597 472.856 347.868 472.247C348.138 471.638 348.274 470.952 348.274 470.193C348.274 469.433 348.138 468.749 347.868 468.139C347.597 467.529 347.224 467.01 346.748 466.58C346.273 466.15 345.709 465.82 345.061 465.59C344.411 465.36 343.719 465.246 342.983 465.246C342.226 465.246 341.528 465.36 340.89 465.59C340.251 465.82 339.689 466.15 339.202 466.58C338.716 467.01 338.337 467.53 338.066 468.139C337.796 468.749 337.661 469.434 337.661 470.193ZM353.044 470.193C353.044 471.493 352.769 472.677 352.216 473.747C351.665 474.817 350.935 475.731 350.015 476.491C349.096 477.251 348.03 477.84 346.807 478.26C345.585 478.68 344.308 478.89 342.967 478.89C341.625 478.89 340.348 478.68 339.126 478.26C337.908 477.84 336.838 477.251 335.918 476.491C334.999 475.731 334.269 474.817 333.717 473.747C333.165 472.677 332.89 471.493 332.89 470.193C332.89 468.894 333.165 467.709 333.717 466.64C334.269 465.57 335 464.655 335.918 463.896C336.838 463.135 337.908 462.546 339.126 462.126C340.348 461.706 341.625 461.497 342.967 461.497C344.308 461.497 345.585 461.706 346.807 462.126C348.03 462.546 349.096 463.136 350.015 463.896C350.935 464.655 351.665 465.57 352.216 466.64C352.769 467.709 353.044 468.894 353.044 470.193ZM374.758 461.886V474.512H376.802V481.498H372.648L372.291 478.47H359.828L359.504 481.498H355.317V474.512H357.524L360.121 461.886H374.758ZM362.489 474.512H369.987V465.724H364.047L362.489 474.512ZM394.361 468.154C393.691 467.254 392.928 466.569 392.074 466.1C391.218 465.63 390.099 465.395 388.714 465.395C387.114 465.395 385.831 465.825 384.868 466.685C383.904 467.544 383.424 468.713 383.424 470.193C383.424 470.913 383.554 471.568 383.813 472.157C384.073 472.747 384.436 473.252 384.9 473.672C385.366 474.092 385.923 474.417 386.572 474.647C387.222 474.876 387.934 474.991 388.714 474.991C390.076 474.991 391.197 474.761 392.074 474.301C392.949 473.841 393.702 473.162 394.329 472.262L398.029 474.182C397.12 475.761 395.892 476.94 394.345 477.72C392.798 478.5 390.942 478.89 388.778 478.89C387.33 478.89 385.988 478.69 384.754 478.29C383.515 477.891 382.45 477.315 381.547 476.566C380.643 475.816 379.935 474.901 379.421 473.822C378.907 472.743 378.653 471.533 378.653 470.193C378.653 468.854 378.912 467.649 379.437 466.579C379.962 465.509 380.681 464.6 381.595 463.851C382.509 463.1 383.58 462.521 384.804 462.111C386.026 461.701 387.351 461.497 388.778 461.497C393.107 461.497 396.2 463.066 398.061 466.205L394.36 468.154H394.361ZM418.638 461.886V465.844H411.661V478.469H406.89V465.844H399.912V461.886H418.638H418.638ZM432.822 461.886C433.622 461.886 434.369 461.996 435.061 462.215C435.754 462.436 436.348 462.746 436.847 463.145C437.345 463.546 437.733 464.025 438.014 464.585C438.296 465.145 438.436 465.775 438.436 466.474C438.436 466.994 438.334 467.489 438.128 467.959C437.923 468.428 437.604 468.803 437.171 469.083C437.95 469.503 438.555 470.038 438.988 470.687C439.42 471.337 439.637 472.191 439.637 473.251C439.637 473.971 439.485 474.65 439.183 475.291C438.88 475.93 438.464 476.485 437.933 476.954C437.403 477.425 436.781 477.794 436.067 478.064C435.353 478.334 434.586 478.469 433.763 478.469H421.169V461.885H432.822V461.886ZM425.942 468.064H432.789C433.027 468.064 433.249 467.949 433.454 467.719C433.66 467.489 433.763 467.234 433.763 466.954C433.763 466.734 433.682 466.494 433.519 466.234C433.357 465.974 433.06 465.844 432.628 465.844H425.942V468.063V468.064ZM425.942 474.512H433.633C434.001 474.512 434.315 474.401 434.575 474.176C434.834 473.957 434.964 473.641 434.964 473.236C434.964 472.852 434.829 472.532 434.558 472.282C434.288 472.027 433.936 471.902 433.503 471.902H425.942V474.511V474.512ZM458.722 461.886V465.844H446.973V468.094H457.521V472.052H446.973V474.391H459.144V478.469H442.2V461.885H458.721L458.722 461.886ZM466.77 461.886V467.945H475.566V461.886H480.338V478.47H475.566V471.903H466.77V478.47H461.999V461.886H466.77ZM488.158 461.886V467.945H496.954V461.886H501.726V478.47H496.954V471.903H488.158V478.47H483.387V461.886H488.158ZM512.111 472.202H518.44L515.714 465.814H514.967L512.111 472.202ZM518.862 461.886L526.489 478.47H521.426L520.29 476.041H510.358L509.254 478.47H504.126L511.916 461.886H518.861H518.862ZM546.384 478.47H541.612V474.991H536.03L534.115 478.47H528.923L531.616 473.972C530.643 473.452 529.843 472.727 529.216 471.798C528.587 470.868 528.273 469.764 528.273 468.484C528.273 467.504 528.463 466.605 528.842 465.785C529.22 464.965 529.751 464.271 530.432 463.701C531.113 463.131 531.908 462.686 532.817 462.367C533.726 462.047 534.721 461.887 535.804 461.887H546.384V478.47V478.47ZM535.966 465.905C535.122 465.905 534.425 466.13 533.872 466.58C533.32 467.03 533.045 467.665 533.045 468.484C533.045 469.283 533.32 469.894 533.872 470.313C534.425 470.733 535.122 470.943 535.966 470.943H541.612V465.905H535.966ZM220.755 494.213V500.061H224.975L229.291 494.213H234.809L229.032 501.89L235.199 510.797H229.518L225.105 504.11H220.755V510.797H215.985V494.213H220.755ZM240.781 502.52C240.781 503.28 240.916 503.964 241.187 504.575C241.457 505.184 241.836 505.704 242.323 506.134C242.81 506.563 243.373 506.893 244.011 507.123C244.648 507.353 245.346 507.468 246.104 507.468C246.84 507.468 247.532 507.353 248.182 507.123C248.831 506.893 249.393 506.563 249.868 506.134C250.345 505.703 250.718 505.184 250.988 504.575C251.259 503.964 251.394 503.279 251.394 502.52C251.394 501.761 251.259 501.076 250.988 500.466C250.718 499.856 250.345 499.336 249.868 498.907C249.392 498.477 248.831 498.147 248.182 497.917C247.532 497.687 246.84 497.572 246.104 497.572C245.346 497.572 244.648 497.687 244.011 497.917C243.373 498.147 242.809 498.477 242.323 498.907C241.836 499.337 241.457 499.857 241.187 500.466C240.916 501.076 240.781 501.761 240.781 502.52ZM256.164 502.52C256.164 503.82 255.889 505.004 255.338 506.074C254.785 507.143 254.055 508.058 253.136 508.818C252.215 509.578 251.151 510.167 249.928 510.587C248.706 511.007 247.429 511.217 246.087 511.217C244.746 511.217 243.469 511.007 242.247 510.587C241.029 510.167 239.958 509.577 239.04 508.818C238.119 508.058 237.388 507.143 236.837 506.074C236.285 505.004 236.009 503.82 236.009 502.52C236.009 501.22 236.285 500.037 236.837 498.967C237.388 497.897 238.119 496.983 239.04 496.223C239.958 495.463 241.029 494.874 242.247 494.453C243.469 494.033 244.746 493.824 246.087 493.824C247.429 493.824 248.706 494.033 249.928 494.453C251.151 494.874 252.215 495.463 253.136 496.223C254.056 496.983 254.785 497.897 255.338 498.967C255.889 500.037 256.164 501.22 256.164 502.52ZM265.155 494.213L270.738 505.279H270.867L276.904 494.213H282.649V510.797H277.879V500.362L272.653 510.797H268.823L263.695 500.362V510.797H259.054V494.213H265.156H265.155ZM303.517 494.213V510.797H298.747V498.112H290.471V510.797H285.699V494.213H303.517ZM313.903 504.529H320.233L317.506 498.142H316.76L313.903 504.529ZM320.654 494.213L328.281 510.797H323.218L322.083 508.368H312.15L311.047 510.797H305.919L313.708 494.213H320.654H320.654ZM335.454 494.213V500.272H344.25V494.213H349.02V510.797H344.25V504.229H335.454V510.797H330.683V494.213H335.454ZM356.842 494.213V504.739L366.254 494.213H370.83V510.797H366.059V500.331L356.647 510.797H352.071V494.213H356.842ZM391.343 510.797H386.572V507.318H380.989L379.075 510.797H373.881L376.575 506.299C375.601 505.779 374.801 505.054 374.174 504.125C373.547 503.195 373.232 502.091 373.232 500.811C373.232 499.831 373.422 498.932 373.8 498.112C374.179 497.293 374.709 496.598 375.391 496.028C376.072 495.458 376.867 495.014 377.776 494.694C378.684 494.374 379.68 494.214 380.762 494.214H391.343V510.797V510.797ZM380.925 498.232C380.08 498.232 379.383 498.457 378.831 498.907C378.279 499.357 378.004 499.992 378.004 500.811C378.004 501.611 378.279 502.221 378.831 502.641C379.383 503.061 380.081 503.27 380.925 503.27H386.572V498.232H380.925Z" fill="white"/>
<path d="M190.994 471.962H201.218V468.094H190.994V471.962Z" fill="white"/>
<path d="M57 427.19H243.664V185.158H57V427.19Z" stroke="white" stroke-width="0.373849" stroke-miterlimit="22.9256"/>
<path d="M252.4 427.19H355.732V185.243H252.4V427.19Z" stroke="white" stroke-width="0.373849" stroke-miterlimit="22.9256"/>
<path d="M364.42 427.189H551.603V185.134H364.42V427.189Z" stroke="white" stroke-width="0.373849" stroke-miterlimit="22.9256"/>
<path d="M111.842 245.396L149.717 339.411H152.837L190.265 245.396H226.134L172.664 368.596H129.221L75.082 245.396H111.842Z" fill="white"/>
<path d="M424.146 245.436V288.852H453.091L482.703 245.436H520.553L480.922 302.433L523.225 368.558H484.262L453.981 318.908H424.146V368.558H391.416V245.436H424.146Z" fill="white"/>
<path d="M320.143 245.477V247.714H287.393V245.477H320.143ZM320.143 249.959V252.053H287.393V249.959H320.143ZM320.143 254.295V256.577H287.393V254.295H320.143ZM320.143 258.821V260.939H287.393V258.821H320.143ZM320.143 263.182V265.089H287.393V263.182H320.143ZM320.143 267.336V269.434H287.393V267.336H320.143ZM320.143 271.677V273.756H287.393V271.677H320.143ZM320.143 290.604V368.645H287.393V290.604H320.143Z" fill="white"/>
<path d="M229.861 293.012H233.666C234.247 293.012 234.723 293.486 234.723 294.067V317.816C234.723 318.398 234.247 318.873 233.666 318.873H229.861C229.28 318.873 228.805 318.398 228.805 317.816V294.067C228.805 293.486 229.28 293.012 229.861 293.012Z" fill="white"/>
<path d="M341.615 293.012H345.42C346.001 293.012 346.477 293.486 346.477 294.067V317.816C346.477 318.398 346.001 318.873 345.42 318.873H341.615C341.034 318.873 340.559 318.398 340.559 317.816V294.067C340.559 293.486 341.034 293.012 341.615 293.012Z" fill="white"/>
<path d="M537.109 293.012H540.914C541.495 293.012 541.97 293.486 541.97 294.067V317.816C541.97 318.398 541.495 318.873 540.914 318.873H537.109C536.527 318.873 536.053 318.398 536.053 317.816V294.067C536.053 293.486 536.527 293.012 537.109 293.012Z" fill="white"/>
<path d="M57.0137 427.293H551.605V448.23H57.0137V427.293Z" stroke="white" stroke-width="0.373849" stroke-miterlimit="22.9256"/>
<path d="M551.564 427.23L596.822 381.985L551.564 427.23Z" fill="#FEFEFE"/>
<path d="M551.564 427.23L596.822 381.985L551.564 427.23Z" stroke="white" stroke-width="0.299004" stroke-miterlimit="22.9256"/>
<path d="M101.374 141.109L289.456 141L243.706 185.28L57.7031 185.061L101.374 141.109Z" stroke="white" stroke-width="0.299004" stroke-miterlimit="22.9256"/>
<path d="M408.741 141.109L595.946 141.165L551.073 185.28L365.125 184.951L408.741 141.109Z" stroke="white" stroke-width="0.299004" stroke-miterlimit="22.9256"/>
<path d="M296.897 141.109L401.023 141L355.931 185.28L253.225 185.061L296.897 141.109Z" stroke="white" stroke-width="0.299004" stroke-miterlimit="22.9256"/>
<path d="M596.904 404.363L596.053 141.576L551.561 185.268L551.836 448.425L596.904 404.363Z" stroke="white" stroke-width="0.299004" stroke-miterlimit="22.9256"/>
<path d="M86.6185 433.465V432.618L86.8676 432.624L87.1137 432.642L87.3564 432.672L87.5953 432.712L87.8297 432.765L88.0595 432.828L88.2852 432.902L88.5059 432.986L88.7206 433.079L88.9297 433.183L89.133 433.296L89.3292 433.418L89.5197 433.549L89.7027 433.688L89.8785 433.835L90.0471 433.99L90.2073 434.153L90.3601 434.323L90.5033 434.5L90.639 434.683L90.7649 434.874L90.8817 435.07L90.9887 435.272L91.0862 435.479L91.1731 435.693L91.2491 435.911L91.3149 436.134L91.369 436.361L91.4117 436.592L91.4427 436.827L91.4612 437.064L91.4676 437.305H90.5937L90.5888 437.108L90.5733 436.912L90.5483 436.72L90.5132 436.531L90.4689 436.345L90.4152 436.164L90.3529 435.985L90.2818 435.811L90.2024 435.641L90.1144 435.476L90.0187 435.315L89.9155 435.159L89.8048 435.008L89.6864 434.863L89.5617 434.723L89.4302 434.59L89.2918 434.463L89.1478 434.342L88.9973 434.228L88.8416 434.121L88.6802 434.021L88.5139 433.929L88.3426 433.844L88.1665 433.767L87.9866 433.698L87.8017 433.638L87.6127 433.586L87.4207 433.543L87.2249 433.509L87.026 433.485L86.8238 433.47L86.6185 433.465ZM82.6423 437.305H81.7683L81.7748 437.064L81.7933 436.826L81.8243 436.591L81.867 436.36L81.9214 436.133L81.9864 435.911L82.0628 435.693L82.1497 435.479L82.2473 435.272L82.3542 435.069L82.471 434.873L82.5973 434.683L82.7326 434.499L82.8766 434.322L83.029 434.152L83.1893 433.99L83.3582 433.834L83.5344 433.687L83.717 433.549L83.9071 433.417L84.104 433.296L84.307 433.183L84.5164 433.079L84.7312 432.985L84.9519 432.901L85.1776 432.828L85.4074 432.765L85.6425 432.712L85.881 432.671L86.1241 432.641L86.3702 432.623L86.6193 432.617V433.465L86.414 433.47L86.2118 433.484L86.0126 433.509L85.8164 433.543L85.6244 433.586L85.4354 433.637L85.2505 433.698L85.0706 433.766L84.8945 433.843L84.7228 433.928L84.5561 434.021L84.3947 434.121L84.2394 434.228L84.0885 434.342L83.9441 434.463L83.8062 434.59L83.6746 434.723L83.5495 434.863L83.4312 435.008L83.3208 435.159L83.2172 435.315L83.1216 435.475L83.0335 435.641L82.9541 435.811L82.8831 435.984L82.8211 436.163L82.7674 436.345L82.7228 436.531L82.6876 436.72L82.6627 436.912L82.6472 437.107L82.6423 437.305ZM86.6185 441.147V441.994L86.3694 441.988L86.1234 441.97L85.8803 441.94L85.6418 441.9L85.4067 441.847L85.1764 441.784L84.9508 441.71L84.7304 441.626L84.5157 441.532L84.3067 441.429L84.1033 441.316L83.906 441.193L83.7162 441.063L83.5336 440.924L83.3575 440.777L83.1885 440.621L83.0282 440.459L82.8759 440.289L82.7315 440.112L82.5965 439.928L82.4703 439.737L82.3535 439.541L82.2465 439.339L82.149 439.131L82.062 438.917L81.9857 438.699L81.9207 438.477L81.8662 438.25L81.8235 438.019L81.7925 437.783L81.774 437.545L81.7676 437.304H82.6415L82.6464 437.503L82.6619 437.698L82.6869 437.89L82.722 438.079L82.7667 438.265L82.8203 438.448L82.8823 438.626L82.9534 438.8L83.0328 438.97L83.1208 439.135L83.2165 439.297L83.3201 439.452L83.4308 439.603L83.5487 439.748L83.6739 439.888L83.8054 440.021L83.9434 440.148L84.0878 440.269L84.2386 440.384L84.3943 440.491L84.5554 440.591L84.7217 440.683L84.8937 440.768L85.0698 440.845L85.2502 440.914L85.435 440.974L85.6236 441.026L85.8157 441.069L86.0118 441.103L86.2111 441.127L86.4133 441.142L86.6185 441.147ZM90.5929 437.305H91.4669L91.4604 437.546L91.4419 437.784L91.4109 438.019L91.3682 438.25L91.3141 438.477L91.2484 438.7L91.1724 438.918L91.0855 439.131L90.9879 439.339L90.881 439.542L90.7641 439.738L90.6383 439.928L90.5029 440.112L90.3593 440.289L90.2066 440.459L90.0463 440.622L89.8777 440.777L89.7019 440.924L89.519 441.063L89.3289 441.194L89.1323 441.316L88.9285 441.429L88.7199 441.532L88.5052 441.626L88.2848 441.71L88.0591 441.784L87.8289 441.847L87.5946 441.9L87.3557 441.941L87.113 441.971L86.8669 441.989L86.6178 441.995V441.147L86.823 441.142L87.0253 441.128L87.2241 441.103L87.4199 441.069L87.6119 441.026L87.8006 440.975L87.9854 440.914L88.1657 440.845L88.3419 440.768L88.5135 440.683L88.6794 440.591L88.8405 440.491L88.9966 440.384L89.147 440.27L89.2911 440.149L89.4294 440.022L89.561 439.888L89.6857 439.749L89.8036 439.603L89.9148 439.453L90.018 439.297L90.1136 439.136L90.2017 438.97L90.2811 438.8L90.3521 438.626L90.4145 438.448L90.4682 438.265L90.5124 438.08L90.5475 437.89L90.5725 437.698L90.588 437.503L90.5929 437.305Z" fill="white"/>
<path d="M86.5862 435.241V434.394L86.7412 434.398L86.8939 434.409L87.0451 434.428L87.1945 434.453L87.3407 434.486L87.484 434.525L87.6242 434.571L87.7615 434.623L87.896 434.682L88.0261 434.746L88.1527 434.817L88.2756 434.893L88.3935 434.974L88.5077 435.06L88.6169 435.152L88.722 435.248L88.8222 435.35L88.917 435.455L89.0066 435.566L89.0913 435.681L89.1695 435.799L89.2425 435.921L89.309 436.047L89.3699 436.177L89.4239 436.31L89.4716 436.446L89.5124 436.585L89.546 436.727L89.5725 436.87L89.5922 437.017L89.6035 437.165L89.6077 437.315H88.7337L88.7311 437.208L88.7227 437.103L88.7091 436.999L88.6902 436.897L88.6664 436.796L88.6377 436.699L88.6037 436.602L88.5655 436.508L88.5228 436.417L88.4751 436.327L88.4234 436.24L88.3678 436.156L88.3081 436.075L88.2442 435.997L88.1765 435.921L88.1058 435.849L88.031 435.781L87.9527 435.715L87.8718 435.653L87.7872 435.596L87.7006 435.542L87.6103 435.492L87.518 435.446L87.4235 435.405L87.3256 435.367L87.2255 435.335L87.1238 435.307L87.0198 435.284L86.9144 435.265L86.807 435.252L86.6974 435.244L86.5862 435.241ZM84.4388 437.315H83.5648L83.569 437.165L83.5803 437.016L83.6 436.87L83.6264 436.726L83.6601 436.585L83.7009 436.446L83.7485 436.31L83.8026 436.177L83.8635 436.047L83.93 435.921L84.0029 435.799L84.0812 435.68L84.1659 435.566L84.2554 435.455L84.3503 435.35L84.4505 435.248L84.5556 435.151L84.6648 435.06L84.779 434.973L84.8973 434.892L85.0202 434.816L85.1464 434.746L85.2772 434.681L85.411 434.623L85.5479 434.571L85.6885 434.525L85.8321 434.485L85.978 434.453L86.1273 434.427L86.2789 434.409L86.4316 434.397L86.5866 434.394V435.241L86.4755 435.244L86.3659 435.252L86.2581 435.265L86.1527 435.283L86.0491 435.306L85.947 435.334L85.8472 435.367L85.7497 435.404L85.6545 435.446L85.5622 435.491L85.4723 435.541L85.3849 435.595L85.3006 435.653L85.2197 435.715L85.1415 435.78L85.0667 435.849L84.996 435.921L84.9283 435.996L84.8644 436.075L84.8047 436.156L84.7491 436.24L84.6973 436.327L84.6497 436.417L84.607 436.508L84.5688 436.602L84.5348 436.698L84.5061 436.796L84.4823 436.896L84.4634 436.998L84.4497 437.102L84.4414 437.207L84.4388 437.315ZM86.5862 439.389V440.236L86.4313 440.233L86.2785 440.221L86.127 440.203L85.9776 440.177L85.8317 440.145L85.6881 440.105L85.5475 440.059L85.4103 440.007L85.2768 439.948L85.146 439.884L85.0198 439.813L84.8969 439.738L84.7779 439.656L84.6645 439.57L84.5552 439.478L84.4501 439.382L84.3496 439.28L84.2551 439.174L84.1655 439.064L84.0808 438.949L84.0026 438.83L83.93 438.709L83.8627 438.582L83.8022 438.452L83.7482 438.32L83.7005 438.184L83.6597 438.044L83.6261 437.903L83.5996 437.759L83.58 437.613L83.5686 437.464L83.5645 437.314H84.4384L84.4411 437.422L84.4494 437.527L84.463 437.631L84.4819 437.733L84.5057 437.833L84.5344 437.931L84.5684 438.027L84.6066 438.122L84.6497 438.213L84.6966 438.302L84.7488 438.389L84.8043 438.474L84.864 438.555L84.9279 438.633L84.996 438.709L85.0663 438.781L85.1411 438.849L85.2194 438.915L85.301 438.977L85.3846 439.035L85.4719 439.088L85.5618 439.139L85.6541 439.184L85.7497 439.226L85.8469 439.263L85.9467 439.296L86.0487 439.324L86.1523 439.347L86.2578 439.365L86.3655 439.378L86.4751 439.386L86.5862 439.389ZM88.7333 437.315H89.6073L89.6031 437.464L89.5918 437.613L89.5721 437.76L89.5457 437.903L89.512 438.045L89.4712 438.184L89.4236 438.32L89.3695 438.453L89.309 438.583L89.2417 438.709L89.1692 438.831L89.0909 438.949L89.0062 439.065L88.9167 439.175L88.8222 439.28L88.7216 439.382L88.6165 439.479L88.5073 439.57L88.3939 439.656L88.2752 439.738L88.1523 439.814L88.0257 439.884L87.8957 439.949L87.7618 440.007L87.6239 440.06L87.4836 440.106L87.3404 440.145L87.1941 440.178L87.0448 440.203L86.8936 440.222L86.7408 440.233L86.5859 440.237V439.389L86.697 439.386L86.8066 439.379L86.914 439.365L87.0194 439.347L87.1234 439.324L87.2251 439.296L87.3252 439.263L87.4224 439.226L87.5177 439.184L87.6099 439.139L87.7002 439.089L87.7868 439.035L87.8707 438.977L87.9524 438.915L88.0306 438.85L88.1055 438.781L88.1758 438.709L88.2438 438.633L88.3077 438.555L88.3674 438.475L88.423 438.39L88.4751 438.303L88.522 438.214L88.5651 438.122L88.6033 438.028L88.6373 437.932L88.666 437.834L88.6899 437.733L88.7088 437.631L88.7224 437.527L88.7307 437.422L88.7333 437.315Z" fill="white"/>
<path d="M523.228 433.465V432.618L523.477 432.624L523.722 432.642L523.965 432.672L524.204 432.712L524.439 432.765L524.669 432.828L524.894 432.902L525.115 432.986L525.329 433.079L525.538 433.183L525.741 433.296L525.938 433.418L526.128 433.549L526.311 433.688L526.487 433.835L526.656 433.99L526.816 434.152L526.969 434.323L527.112 434.5L527.248 434.683L527.374 434.874L527.491 435.07L527.598 435.272L527.695 435.479L527.782 435.693L527.858 435.911L527.924 436.134L527.978 436.361L528.021 436.592L528.052 436.827L528.07 437.064L528.077 437.305H527.203L527.198 437.108L527.182 436.912L527.157 436.72L527.122 436.531L527.078 436.345L527.024 436.164L526.962 435.985L526.891 435.811L526.811 435.641L526.723 435.476L526.628 435.315L526.525 435.159L526.414 435.008L526.295 434.863L526.171 434.724L526.039 434.59L525.901 434.463L525.757 434.342L525.606 434.228L525.451 434.121L525.289 434.021L525.122 433.929L524.951 433.844L524.775 433.767L524.595 433.698L524.41 433.638L524.222 433.586L524.03 433.543L523.834 433.509L523.635 433.485L523.433 433.47L523.228 433.465ZM519.252 437.305H518.378L518.384 437.064L518.403 436.826L518.434 436.591L518.476 436.361L518.53 436.133L518.596 435.911L518.672 435.693L518.759 435.479L518.857 435.272L518.964 435.069L519.08 434.874L519.206 434.683L519.342 434.499L519.485 434.322L519.638 434.152L519.799 433.99L519.967 433.834L520.143 433.687L520.326 433.549L520.516 433.417L520.713 433.296L520.916 433.183L521.125 433.079L521.341 432.985L521.561 432.901L521.787 432.828L522.016 432.765L522.252 432.712L522.49 432.671L522.733 432.641L522.979 432.623L523.228 432.617V433.465L523.023 433.47L522.821 433.484L522.622 433.509L522.425 433.543L522.233 433.586L522.044 433.637L521.86 433.698L521.679 433.766L521.503 433.843L521.332 433.928L521.165 434.021L521.004 434.121L520.848 434.228L520.698 434.342L520.554 434.463L520.416 434.59L520.283 434.723L520.159 434.863L520.041 435.008L519.93 435.159L519.827 435.314L519.731 435.475L519.643 435.641L519.564 435.811L519.492 435.984L519.43 436.163L519.376 436.345L519.332 436.531L519.297 436.72L519.272 436.912L519.257 437.107L519.252 437.305ZM523.228 441.147V441.994L522.978 441.988L522.732 441.97L522.489 441.94L522.251 441.9L522.016 441.847L521.785 441.784L521.56 441.71L521.34 441.626L521.124 441.532L520.916 441.429L520.712 441.316L520.515 441.193L520.325 441.063L520.143 440.924L519.966 440.777L519.798 440.621L519.638 440.459L519.485 440.289L519.341 440.112L519.206 439.928L519.08 439.737L518.963 439.541L518.856 439.339L518.758 439.131L518.671 438.917L518.595 438.7L518.53 438.477L518.476 438.249L518.433 438.019L518.402 437.783L518.383 437.545L518.377 437.304H519.251L519.256 437.503L519.271 437.698L519.296 437.89L519.331 438.079L519.376 438.265L519.429 438.447L519.492 438.626L519.563 438.8L519.642 438.97L519.73 439.135L519.826 439.297L519.929 439.452L520.04 439.603L520.158 439.748L520.282 439.887L520.415 440.021L520.553 440.149L520.697 440.269L520.848 440.384L521.003 440.491L521.164 440.591L521.331 440.683L521.502 440.768L521.678 440.845L521.859 440.914L522.044 440.974L522.233 441.026L522.425 441.069L522.621 441.103L522.82 441.127L523.022 441.142L523.228 441.147ZM527.202 437.305H528.076L528.069 437.546L528.051 437.784L528.02 438.019L527.977 438.25L527.923 438.477L527.857 438.7L527.781 438.918L527.694 439.131L527.597 439.339L527.49 439.542L527.373 439.738L527.247 439.928L527.112 440.112L526.968 440.289L526.815 440.459L526.655 440.622L526.487 440.777L526.31 440.924L526.128 441.063L525.938 441.194L525.741 441.316L525.537 441.429L525.329 441.532L525.114 441.626L524.894 441.71L524.669 441.784L524.438 441.847L524.203 441.9L523.964 441.941L523.722 441.971L523.476 441.989L523.227 441.995V441.147L523.432 441.142L523.634 441.128L523.833 441.103L524.029 441.069L524.221 441.026L524.409 440.975L524.594 440.914L524.774 440.845L524.951 440.768L525.122 440.683L525.288 440.591L525.449 440.491L525.605 440.384L525.756 440.27L525.9 440.149L526.038 440.022L526.17 439.888L526.295 439.749L526.413 439.603L526.524 439.453L526.627 439.297L526.723 439.136L526.811 438.97L526.89 438.8L526.961 438.626L527.023 438.448L527.077 438.265L527.121 438.08L527.157 437.89L527.181 437.698L527.197 437.503L527.202 437.305Z" fill="white"/>
<path d="M523.198 435.241V434.394L523.353 434.398L523.506 434.409L523.657 434.428L523.806 434.453L523.952 434.486L524.096 434.525L524.236 434.571L524.373 434.623L524.507 434.682L524.638 434.746L524.764 434.817L524.887 434.893L525.004 434.973L525.119 435.06L525.229 435.152L525.334 435.249L525.434 435.35L525.528 435.455L525.618 435.566L525.703 435.681L525.781 435.799L525.854 435.921L525.92 436.047L525.981 436.177L526.035 436.31L526.083 436.446L526.124 436.585L526.157 436.727L526.184 436.87L526.204 437.017L526.215 437.165L526.219 437.315H525.345L525.342 437.208L525.334 437.103L525.32 436.999L525.302 436.897L525.278 436.796L525.249 436.699L525.215 436.602L525.177 436.508L525.134 436.417L525.086 436.327L525.035 436.24L524.979 436.156L524.919 436.075L524.856 435.997L524.788 435.921L524.717 435.849L524.642 435.78L524.564 435.715L524.484 435.654L524.399 435.596L524.312 435.542L524.222 435.492L524.13 435.446L524.034 435.404L523.937 435.367L523.837 435.335L523.736 435.307L523.632 435.284L523.526 435.265L523.419 435.252L523.309 435.244L523.198 435.241ZM521.05 437.315H520.176L520.18 437.165L520.192 437.016L520.211 436.87L520.238 436.726L520.271 436.585L520.312 436.446L520.36 436.31L520.414 436.177L520.475 436.047L520.541 435.921L520.615 435.799L520.693 435.68L520.777 435.566L520.867 435.455L520.962 435.35L521.062 435.248L521.167 435.152L521.276 435.06L521.391 434.973L521.509 434.892L521.632 434.816L521.759 434.746L521.889 434.681L522.023 434.623L522.16 434.571L522.3 434.525L522.444 434.485L522.59 434.453L522.739 434.427L522.891 434.409L523.043 434.397L523.198 434.394V435.241L523.087 435.244L522.978 435.252L522.87 435.265L522.764 435.283L522.661 435.306L522.559 435.334L522.459 435.367L522.361 435.404L522.266 435.446L522.174 435.491L522.084 435.541L521.997 435.595L521.912 435.653L521.831 435.715L521.753 435.78L521.678 435.849L521.607 435.921L521.54 435.996L521.476 436.074L521.416 436.156L521.36 436.24L521.309 436.327L521.261 436.417L521.218 436.508L521.18 436.602L521.146 436.698L521.117 436.796L521.094 436.896L521.075 436.998L521.061 437.102L521.053 437.207L521.05 437.315ZM523.198 439.389V440.236L523.043 440.233L522.89 440.221L522.739 440.203L522.589 440.177L522.443 440.145L522.3 440.105L522.159 440.059L522.022 440.007L521.889 439.948L521.758 439.884L521.631 439.813L521.508 439.738L521.39 439.656L521.276 439.57L521.166 439.478L521.062 439.382L520.961 439.28L520.866 439.174L520.777 439.064L520.693 438.949L520.614 438.831L520.541 438.709L520.474 438.582L520.414 438.452L520.36 438.32L520.312 438.184L520.271 438.044L520.237 437.903L520.211 437.759L520.191 437.613L520.18 437.464L520.176 437.314H521.05L521.052 437.422L521.061 437.527L521.074 437.631L521.093 437.733L521.117 437.833L521.146 437.931L521.18 438.027L521.218 438.122L521.261 438.213L521.308 438.302L521.36 438.389L521.416 438.474L521.475 438.555L521.539 438.633L521.607 438.709L521.678 438.781L521.753 438.85L521.831 438.915L521.912 438.977L521.997 439.035L522.083 439.088L522.173 439.139L522.266 439.184L522.361 439.226L522.459 439.263L522.558 439.296L522.66 439.324L522.764 439.347L522.869 439.365L522.977 439.378L523.087 439.386L523.198 439.389ZM525.345 437.315H526.219L526.214 437.464L526.203 437.613L526.183 437.76L526.157 437.903L526.123 438.045L526.083 438.184L526.035 438.32L525.981 438.453L525.92 438.583L525.853 438.709L525.781 438.831L525.702 438.949L525.618 439.065L525.528 439.175L525.434 439.28L525.333 439.382L525.229 439.478L525.119 439.57L525.005 439.657L524.887 439.738L524.764 439.814L524.637 439.884L524.507 439.949L524.373 440.007L524.236 440.06L524.095 440.106L523.952 440.145L523.806 440.178L523.656 440.203L523.505 440.222L523.353 440.233L523.198 440.237V439.389L523.309 439.386L523.418 439.379L523.526 439.365L523.631 439.347L523.735 439.324L523.837 439.296L523.937 439.263L524.034 439.226L524.129 439.184L524.222 439.139L524.311 439.089L524.398 439.035L524.482 438.977L524.564 438.915L524.642 438.85L524.716 438.781L524.787 438.709L524.855 438.633L524.919 438.555L524.979 438.475L525.034 438.39L525.086 438.303L525.133 438.214L525.176 438.122L525.215 438.028L525.249 437.932L525.277 437.834L525.301 437.733L525.32 437.631L525.334 437.527L525.342 437.422L525.345 437.315Z" fill="white"/>
</svg>
