<?xml version="1.0" encoding="UTF-8"?>
<!DOCTYPE svg PUBLIC "-//W3C//DTD SVG 1.1//EN" "http://www.w3.org/Graphics/SVG/1.1/DTD/svg11.dtd">
<!-- Creator: CorelDRAW 2020 (64-Bit) -->
<svg xmlns="http://www.w3.org/2000/svg" xml:space="preserve" width="142.939mm" height="97.9926mm" version="1.1" style="shape-rendering:geometricPrecision; text-rendering:geometricPrecision; image-rendering:optimizeQuality; fill-rule:evenodd; clip-rule:evenodd"
viewBox="0 0 14291.82 9797.85"
 xmlns:xlink="http://www.w3.org/1999/xlink"
 xmlns:xodm="http://www.corel.com/coreldraw/odm/2003">
 <defs>
  <style type="text/css">
   <![CDATA[
    .str2 {stroke:white;stroke-width:7.91;stroke-miterlimit:22.9256}
    .str0 {stroke:white;stroke-width:4.28;stroke-miterlimit:22.9256}
    .str1 {stroke:white;stroke-width:9.89;stroke-miterlimit:22.9256}
    .fil0 {fill:none;fill-rule:nonzero}
    .fil2 {fill:#FEFEFE;fill-rule:nonzero}
    .fil1 {fill:white;fill-rule:nonzero}
   ]]>
  </style>
 </defs>
 <g id="Слой_x0020_1">
  <metadata id="CorelCorpID_0Corel-Layer"/>
  <g id="_2311413295712">
   <path class="fil0 str0" d="M2016.12 440.35l0.08 0c7.08,8.8 5.4,21.25 -3.81,27.82l-49.77 35.56c-9.14,6.55 -22.44,4.76 -29.49,-3.96l0 0c-7.16,-8.74 -5.41,-21.33 3.73,-27.88l49.78 -35.51c9.14,-6.55 22.51,-4.75 29.48,3.97z"/>
   <path class="fil0 str0" d="M2160.5 439.46l0 0c7.05,8.72 5.31,21.31 -3.85,27.86l-49.76 35.51c-9.22,6.57 -22.39,4.75 -29.56,-3.99l0 0c-6.98,-8.78 -5.28,-21.23 3.85,-27.8l49.71 -35.56c9.27,-6.55 22.45,-4.76 29.61,3.98z"/>
   <path class="fil0 str0" d="M2332.7 440l0.04 0c6.99,8.66 5.37,21.24 -3.82,27.81l-49.73 35.55c-9.28,6.57 -22.49,4.75 -29.62,-3.97l0 -0.05c-7.04,-8.73 -5.28,-21.26 3.85,-27.81l49.77 -35.5c9.24,-6.57 22.41,-4.75 29.51,3.97z"/>
   <path class="fil0 str0" d="M1816.98 541.29l0 0c7.04,8.78 5.42,21.17 -3.85,27.74l-49.7 35.62c-9.21,6.57 -22.46,4.76 -29.5,-4.02l0 0c-7.17,-8.74 -5.36,-21.19 3.79,-27.76l49.77 -35.57c9.14,-6.55 22.39,-4.75 29.49,3.99z"/>
   <path class="fil0 str0" d="M2013.12 540.32l0.06 0c6.99,8.78 5.35,21.29 -3.85,27.86l-49.71 35.5c-9.27,6.57 -22.46,4.82 -29.62,-3.9l0 -0.12c-7.04,-8.62 -5.3,-21.19 3.86,-27.76l49.76 -35.56c9.22,-6.56 22.4,-4.76 29.5,3.98z"/>
   <path class="fil0 str0" d="M2174.82 539.89l0 0c7.05,8.74 5.37,21.31 -3.78,27.76l-49.77 35.56c-9.16,6.55 -22.51,4.76 -29.5,-3.96l-0.05 0c-7.11,-8.74 -5.35,-21.22 3.78,-27.7l49.83 -35.62c9.1,-6.58 22.34,-4.76 29.49,3.96z"/>
   <path class="fil0 str0" d="M2348.93 539.48l0 0c7.1,8.72 5.43,21.18 -3.79,27.74l-49.76 35.62c-9.16,6.57 -22.39,4.69 -29.5,-4.03l0 0c-7.04,-8.74 -5.41,-21.19 3.84,-27.76l49.71 -35.56c9.22,-6.55 22.46,-4.74 29.5,3.99z"/>
   <path class="fil0 str0" d="M1839.91 641.79l0 0c6.98,8.71 5.31,21.24 -3.85,27.87l-49.71 35.45c-9.26,6.55 -22.45,4.81 -29.61,-3.99l0 0c-7.04,-8.72 -5.29,-21.11 3.86,-27.68l49.76 -35.62c9.21,-6.57 22.4,-4.76 29.55,3.97z"/>
   <path class="fil0 str0" d="M1999.7 641.43l0 0c7.03,8.72 5.41,21.19 -3.86,27.74l-49.71 35.58c-9.21,6.55 -22.45,4.75 -29.49,-3.98l0 0c-7.17,-8.73 -5.42,-21.19 3.73,-27.74l49.84 -35.57c9.14,-6.57 22.33,-4.75 29.49,3.97z"/>
   <path class="fil0 str0" d="M2156.36 641.43l0 0c7.08,8.72 5.37,21.19 -3.73,27.74l-49.85 35.58c-9.14,6.55 -22.37,4.75 -29.53,-3.98l0 0c-7.01,-8.73 -5.37,-21.19 3.78,-27.74l49.78 -35.57c9.19,-6.57 22.51,-4.75 29.55,3.97z"/>
   <path class="fil0 str0" d="M2534.12 440l0 0c7.16,8.66 5.36,21.24 -3.71,27.81l-49.85 35.55c-9.09,6.57 -22.43,4.75 -29.49,-3.97l0 -0.05c-7.05,-8.73 -5.41,-21.26 3.84,-27.81l49.71 -35.5c9.16,-6.57 22.51,-4.75 29.5,3.97z"/>
   <path class="fil0 str0" d="M2335.41 641.43l0 0c7.16,8.72 5.4,21.19 -3.73,27.74l-49.83 35.58c-9.1,6.55 -22.33,4.75 -29.5,-3.98l0 0c-7.04,-8.73 -5.36,-21.19 3.85,-27.74l49.71 -35.57c9.16,-6.57 22.52,-4.75 29.5,3.97z"/>
   <path class="fil0 str0" d="M2550.42 539.48l0 0c7.05,8.72 5.43,21.18 -3.73,27.74l-49.76 35.62c-9.22,6.57 -22.51,4.69 -29.56,-4.03l0 0c-7.1,-8.74 -5.4,-21.19 3.73,-27.76l49.83 -35.56c9.15,-6.55 22.45,-4.74 29.49,3.99z"/>
   <path class="fil0 str0" d="M3717.45 440.35l0 0c7.16,8.8 5.4,21.25 -3.81,27.82l-49.77 35.56c-9.13,6.55 -22.39,4.76 -29.49,-3.96l-0.04 0c-7.01,-8.74 -5.37,-21.33 3.9,-27.88l49.71 -35.51c9.19,-6.55 22.45,-4.75 29.5,3.97z"/>
   <path class="fil0 str0" d="M3861.75 439.46l0 0c7.05,8.72 5.43,21.31 -3.85,27.86l-49.64 35.51c-9.2,6.57 -22.51,4.75 -29.56,-3.99l0 0c-7.16,-8.78 -5.35,-21.23 3.75,-27.8l49.83 -35.56c9.13,-6.55 22.37,-4.76 29.47,3.98z"/>
   <path class="fil0 str0" d="M4033.93 440l0 0c7.18,8.66 5.48,21.24 -3.73,27.81l-49.75 35.55c-9.16,6.57 -22.51,4.75 -29.5,-3.97l0 -0.05c-7.18,-8.73 -5.48,-21.26 3.73,-27.81l49.77 -35.5c9.15,-6.57 22.51,-4.75 29.48,3.97z"/>
   <path class="fil0 str0" d="M3518.25 541.29l0 0c7.16,8.78 5.4,21.17 -3.74,27.74l-49.78 35.62c-9.14,6.57 -22.51,4.76 -29.48,-4.02l-0.07 0c-7.09,-8.74 -5.41,-21.19 3.8,-27.76l49.77 -35.57c9.13,-6.55 22.45,-4.75 29.5,3.99z"/>
   <path class="fil0 str0" d="M3714.37 540.32l0 0c7.16,8.78 5.46,21.29 -3.73,27.86l-49.77 35.5c-9.15,6.57 -22.51,4.82 -29.49,-3.9l0 -0.12c-7.17,-8.62 -5.41,-21.19 3.73,-27.76l49.76 -35.56c9.16,-6.56 22.51,-4.76 29.5,3.98z"/>
   <path class="fil0 str0" d="M3876.03 539.89l0.03 0c7.13,8.74 5.37,21.31 -3.78,27.76l-49.77 35.56c-9.14,6.55 -22.4,4.76 -29.54,-3.96l0 0c-7.12,-8.74 -5.36,-21.22 3.79,-27.7l49.75 -35.62c9.24,-6.58 22.53,-4.76 29.52,3.96z"/>
   <path class="fil0 str0" d="M4050.3 539.48l0 0c6.99,8.72 5.37,21.18 -3.84,27.74l-49.71 35.62c-9.26,6.57 -22.51,4.69 -29.54,-4.03l0 0c-7.12,-8.74 -5.37,-21.19 3.79,-27.76l49.77 -35.56c9.13,-6.55 22.39,-4.74 29.53,3.99z"/>
   <path class="fil0 str0" d="M3541.16 641.79l0 0c7.1,8.71 5.41,21.24 -3.81,27.87l-49.69 35.45c-9.21,6.55 -22.57,4.81 -29.55,-3.99l0 0c-7.16,-8.72 -5.43,-21.11 3.73,-27.68l49.82 -35.62c9.1,-6.57 22.46,-4.76 29.5,3.97z"/>
   <path class="fil0 str0" d="M3700.95 641.43l0 0c7.11,8.72 5.41,21.19 -3.72,27.74l-49.85 35.58c-9.14,6.55 -22.43,4.75 -29.48,-3.98l0 0c-7.1,-8.73 -5.43,-21.19 3.73,-27.74l49.83 -35.57c9.13,-6.57 22.45,-4.75 29.49,3.97z"/>
   <path class="fil0 str0" d="M3857.67 641.43l0 0c7.04,8.72 5.35,21.19 -3.85,27.74l-49.77 35.58c-9.15,6.55 -22.33,4.75 -29.5,-3.98l0 0c-7.04,-8.73 -5.3,-21.19 3.85,-27.74l49.77 -35.57c9.16,-6.57 22.4,-4.75 29.5,3.97z"/>
   <path class="fil0 str0" d="M4213.05 440l0 0c7.16,8.66 5.41,21.24 -3.73,27.81l-49.85 35.55c-9.13,6.57 -22.43,4.75 -29.47,-3.97l0 -0.05c-7.1,-8.73 -5.42,-21.26 3.79,-27.81l49.77 -35.5c9.15,-6.57 22.45,-4.75 29.49,3.97z"/>
   <path class="fil0 str0" d="M4036.77 641.43l0 0c7.04,8.72 5.42,21.19 -3.85,27.74l-49.71 35.58c-9.22,6.55 -22.45,4.75 -29.56,-3.98l-0.05 0c-6.99,-8.73 -5.29,-21.19 3.9,-27.74l49.77 -35.57c9.15,-6.57 22.33,-4.75 29.5,3.97z"/>
   <path class="fil0 str0" d="M4229.36 539.48l0 0c7.02,8.72 5.41,21.18 -3.87,27.74l-49.65 35.62c-9.19,6.57 -22.51,4.69 -29.55,-4.03l0 0c-7.17,-8.74 -5.35,-21.19 3.75,-27.76l49.81 -35.56c9.15,-6.55 22.39,-4.74 29.51,3.99z"/>
   <path class="fil0 str0" d="M2713.24 440l0 0c7.08,8.66 5.34,21.24 -3.75,27.81l-49.83 35.55c-9.14,6.57 -22.37,4.75 -29.56,-3.97l0 -0.05c-6.98,-8.73 -5.34,-21.26 3.79,-27.81l49.79 -35.5c9.19,-6.57 22.51,-4.75 29.56,3.97z"/>
   <path class="fil0 str0" d="M2536.96 641.43l0 0c7.04,8.72 5.35,21.19 -3.85,27.74l-49.71 35.58c-9.15,6.55 -22.51,4.75 -29.52,-3.98l-0.03 0c-7.11,-8.73 -5.37,-21.19 3.79,-27.74l49.82 -35.57c9.1,-6.57 22.34,-4.75 29.5,3.97z"/>
   <path class="fil0 str0" d="M2729.47 539.48l0 0c7.17,8.72 5.49,21.18 -3.72,27.74l-49.77 35.62c-9.16,6.57 -22.46,4.69 -29.5,-4.03l0 0c-7.16,-8.74 -5.43,-21.19 3.73,-27.76l49.77 -35.56c9.15,-6.55 22.51,-4.74 29.49,3.99z"/>
   <path class="fil0 str0" d="M4392.09 440l0.06 0c7.11,8.66 5.41,21.24 -3.8,27.81l-49.75 35.55c-9.16,6.57 -22.48,4.75 -29.5,-3.97l0 -0.05c-7.05,-8.73 -5.43,-21.26 3.73,-27.81l49.77 -35.5c9.15,-6.57 22.51,-4.75 29.49,3.97z"/>
   <path class="fil0 str0" d="M4215.87 641.43l0 0c6.99,8.72 5.29,21.19 -3.84,27.74l-49.71 35.58c-9.28,6.55 -22.45,4.75 -29.62,-3.98l0 0c-7.04,-8.73 -5.31,-21.19 3.85,-27.74l49.77 -35.57c9.21,-6.57 22.39,-4.75 29.55,3.97z"/>
   <path class="fil0 str0" d="M4430.79 539.48l0 0c7.15,8.72 5.35,21.18 -3.8,27.74l-49.77 35.62c-9.16,6.57 -22.38,4.69 -29.5,-4.03l-0.06 0c-6.98,-8.74 -5.35,-21.19 3.91,-27.76l49.67 -35.56c9.25,-6.55 22.51,-4.74 29.55,3.99z"/>
   <path class="fil0 str0" d="M10089.22 440.35l0 0c7.16,8.8 5.35,21.25 -3.79,27.82l-49.77 35.56c-9.15,6.55 -22.39,4.76 -29.57,-3.96l0 0c-6.97,-8.74 -5.35,-21.33 3.93,-27.88l49.64 -35.51c9.28,-6.55 22.51,-4.75 29.56,3.97z"/>
   <path class="fil0 str0" d="M10233.54 439.46l0 0c7.03,8.72 5.41,21.31 -3.87,27.86l-49.71 35.51c-9.15,6.57 -22.44,4.75 -29.49,-3.99l0 0c-7.14,-8.78 -5.4,-21.23 3.75,-27.8l49.83 -35.56c9.13,-6.55 22.37,-4.76 29.49,3.98z"/>
   <path class="fil0 str0" d="M10405.72 440l0 0c7.17,8.66 5.41,21.24 -3.72,27.81l-49.77 35.55c-9.16,6.57 -22.51,4.75 -29.5,-3.97l-0.06 -0.05c-7.1,-8.73 -5.42,-21.26 3.79,-27.81l49.77 -35.5c9.15,-6.57 22.45,-4.75 29.49,3.97z"/>
   <path class="fil0 str0" d="M9890.02 541.29l0 0c7.1,8.78 5.4,21.17 -3.73,27.74l-49.77 35.62c-9.22,6.57 -22.51,4.76 -29.56,-4.02l0 0c-7.1,-8.74 -5.42,-21.19 3.73,-27.76l49.83 -35.57c9.15,-6.55 22.45,-4.75 29.5,3.99z"/>
   <path class="fil0 str0" d="M10086.14 540.32l0 0c7.16,8.78 5.42,21.29 -3.73,27.86l-49.77 35.5c-9.15,6.57 -22.51,4.82 -29.49,-3.9l-0.06 -0.12c-7.11,-8.62 -5.35,-21.19 3.79,-27.76l49.76 -35.56c9.16,-6.56 22.46,-4.76 29.5,3.98z"/>
   <path class="fil0 str0" d="M10247.79 539.89l0 0c7.18,8.74 5.42,21.31 -3.73,27.76l-49.81 35.56c-9.1,6.55 -22.33,4.76 -29.5,-3.96l0 0c-7.12,-8.74 -5.36,-21.22 3.79,-27.7l49.77 -35.62c9.14,-6.58 22.52,-4.76 29.48,3.96z"/>
   <path class="fil0 str0" d="M10422.02 539.48l0.08 0c6.97,8.72 5.35,21.18 -3.85,27.74l-49.72 35.62c-9.28,6.57 -22.5,4.69 -29.56,-4.03l0 0c-7.1,-8.74 -5.35,-21.19 3.79,-27.76l49.77 -35.56c9.17,-6.55 22.39,-4.74 29.49,3.99z"/>
   <path class="fil0 str0" d="M9912.94 641.79l0 0c7.1,8.71 5.41,21.24 -3.79,27.87l-49.77 35.45c-9.15,6.55 -22.51,4.81 -29.49,-3.99l0 0c-7.16,-8.72 -5.43,-21.11 3.73,-27.68l49.82 -35.62c9.1,-6.57 22.46,-4.76 29.5,3.97z"/>
   <path class="fil0 str0" d="M10072.68 641.43l0 0c7.16,8.72 5.46,21.19 -3.73,27.74l-49.77 35.58c-9.15,6.55 -22.45,4.75 -29.5,-3.98l0 0c-7.16,-8.73 -5.43,-21.19 3.73,-27.74l49.83 -35.57c9.15,-6.57 22.45,-4.75 29.44,3.97z"/>
   <path class="fil0 str0" d="M10229.44 641.43l0 0c7.04,8.72 5.37,21.19 -3.85,27.74l-49.76 35.58c-9.16,6.55 -22.4,4.75 -29.5,-3.98l0 0c-7.05,-8.73 -5.35,-21.19 3.84,-27.74l49.77 -35.57c9.16,-6.57 22.4,-4.75 29.5,3.97z"/>
   <path class="fil0 str0" d="M10607.22 440l0.06 0c6.98,8.66 5.28,21.24 -3.87,27.81l-49.69 35.55c-9.27,6.57 -22.45,4.75 -29.62,-3.97l0 -0.05c-6.98,-8.73 -5.3,-21.26 3.85,-27.81l49.77 -35.5c9.16,-6.57 22.39,-4.75 29.5,3.97z"/>
   <path class="fil0 str0" d="M10408.55 641.43l0 0c6.98,8.72 5.31,21.19 -3.85,27.74l-49.71 35.58c-9.22,6.55 -22.45,4.75 -29.61,-3.98l0 0c-6.99,-8.73 -5.31,-21.19 3.85,-27.74l49.76 -35.57c9.22,-6.57 22.39,-4.75 29.56,3.97z"/>
   <path class="fil0 str0" d="M10623.48 539.48l0 0c7.15,8.72 5.4,21.18 -3.75,27.74l-49.81 35.62c-9.17,6.57 -22.47,4.69 -29.52,-4.03l0 0c-7.02,-8.74 -5.4,-21.19 3.87,-27.76l49.69 -35.56c9.15,-6.55 22.51,-4.74 29.52,3.99z"/>
   <path class="fil0 str0" d="M11790.53 440.35l0 0c7.04,8.8 5.42,21.25 -3.85,27.82l-49.65 35.56c-9.27,6.55 -22.51,4.76 -29.56,-3.96l0 0c-7.16,-8.74 -5.34,-21.33 3.8,-27.88l49.76 -35.51c9.22,-6.55 22.39,-4.75 29.5,3.97z"/>
   <path class="fil0 str0" d="M11934.79 439.46l0 0c7.11,8.72 5.41,21.31 -3.73,27.86l-49.82 35.51c-9.16,6.57 -22.46,4.75 -29.5,-3.99l0 0c-7.05,-8.78 -5.42,-21.23 3.73,-27.8l49.77 -35.56c9.21,-6.55 22.51,-4.76 29.55,3.98z"/>
   <path class="fil0 str0" d="M12106.96 440l0.07 0c7.1,8.66 5.36,21.24 -3.79,27.81l-49.77 35.55c-9.22,6.57 -22.39,4.75 -29.56,-3.97l0 -0.05c-6.98,-8.73 -5.35,-21.26 3.85,-27.81l49.71 -35.5c9.27,-6.57 22.51,-4.75 29.49,3.97z"/>
   <path class="fil0 str0" d="M11591.27 541.29l0 0c7.16,8.78 5.42,21.17 -3.74,27.74l-49.76 35.62c-9.22,6.57 -22.39,4.76 -29.56,-4.02l0 0c-7.04,-8.74 -5.36,-21.19 3.85,-27.76l49.71 -35.57c9.22,-6.55 22.45,-4.75 29.5,3.99z"/>
   <path class="fil0 str0" d="M11787.39 540.32l0.06 0c7.12,8.78 5.36,21.29 -3.79,27.86l-49.77 35.5c-9.13,6.57 -22.39,4.82 -29.53,-3.9l0 -0.12c-7,-8.62 -5.37,-21.19 3.85,-27.76l49.71 -35.56c9.13,-6.56 22.48,-4.76 29.47,3.98z"/>
   <path class="fil0 str0" d="M11949.18 539.89l0 0c7.04,8.74 5.28,21.31 -3.87,27.76l-49.75 35.56c-9.16,6.55 -22.39,4.76 -29.56,-3.96l0 0c-6.98,-8.74 -5.3,-21.22 3.91,-27.7l49.65 -35.62c9.27,-6.58 22.45,-4.76 29.62,3.96z"/>
   <path class="fil0 str0" d="M12123.26 539.48l0 0c7.18,8.72 5.43,21.18 -3.73,27.74l-49.76 35.62c-9.14,6.57 -22.51,4.69 -29.48,-4.03l0 0c-7.16,-8.74 -5.48,-21.19 3.73,-27.76l49.77 -35.56c9.15,-6.55 22.51,-4.74 29.47,3.99z"/>
   <path class="fil0 str0" d="M11614.18 641.79l0 0c7.1,8.71 5.37,21.24 -3.72,27.87l-49.84 35.45c-9.15,6.55 -22.39,4.81 -29.55,-3.99l0 0c-6.98,-8.72 -5.37,-21.11 3.81,-27.68l49.75 -35.62c9.27,-6.57 22.51,-4.76 29.55,3.97z"/>
   <path class="fil0 str0" d="M11773.97 641.43l0 0c7.17,8.72 5.37,21.19 -3.72,27.74l-49.83 35.58c-9.15,6.55 -22.4,4.75 -29.5,-3.98l0 0c-7.04,-8.73 -5.43,-21.19 3.85,-27.74l49.71 -35.57c9.21,-6.57 22.45,-4.75 29.49,3.97z"/>
   <path class="fil0 str0" d="M11930.75 641.43l0 0c6.98,8.72 5.36,21.19 -3.79,27.74l-49.77 35.58c-9.21,6.55 -22.51,4.75 -29.55,-3.98l0 0c-7.11,-8.73 -5.35,-21.19 3.74,-27.74l49.81 -35.57c9.16,-6.57 22.42,-4.75 29.56,3.97z"/>
   <path class="fil0 str0" d="M12286.07 440l0 0c7.17,8.66 5.41,21.24 -3.73,27.81l-49.82 35.55c-9.16,6.57 -22.4,4.75 -29.5,-3.97l0 -0.05c-7.04,-8.73 -5.42,-21.26 3.85,-27.81l49.71 -35.5c9.21,-6.57 22.45,-4.75 29.49,3.97z"/>
   <path class="fil0 str0" d="M12109.81 641.43l0 0c7.02,8.72 5.4,21.19 -3.81,27.74l-49.71 35.58c-9.21,6.55 -22.51,4.75 -29.55,-3.98l0 0c-7.17,-8.73 -5.41,-21.19 3.74,-27.74l49.81 -35.57c9.1,-6.57 22.47,-4.75 29.52,3.97z"/>
   <path class="fil0 str0" d="M12302.39 539.48l0 0c7.1,8.72 5.41,21.18 -3.73,27.74l-49.82 35.62c-9.16,6.57 -22.46,4.69 -29.5,-4.03l0 0c-7.05,-8.74 -5.43,-21.19 3.73,-27.76l49.77 -35.56c9.21,-6.55 22.51,-4.74 29.55,3.99z"/>
   <path class="fil0 str0" d="M10786.32 440l0 0c7.04,8.66 5.4,21.24 -3.85,27.81l-49.79 35.55c-9.14,6.57 -22.37,4.75 -29.48,-3.97l0 -0.05c-7.04,-8.73 -5.36,-21.26 3.85,-27.81l49.77 -35.5c9.16,-6.57 22.39,-4.75 29.5,3.97z"/>
   <path class="fil0 str0" d="M10609.92 641.43l0 0c7.16,8.72 5.42,21.19 -3.73,27.74l-49.77 35.58c-9.15,6.55 -22.45,4.75 -29.49,-3.98l0 0c-7.17,-8.73 -5.43,-21.19 3.73,-27.74l49.76 -35.57c9.16,-6.57 22.54,-4.75 29.5,3.97z"/>
   <path class="fil0 str0" d="M10802.55 539.48l0 0c7.13,8.72 5.37,21.18 -3.78,27.74l-49.77 35.62c-9.14,6.57 -22.4,4.69 -29.54,-4.03l0 0c-7,-8.74 -5.37,-21.19 3.79,-27.76l49.77 -35.56c9.27,-6.55 22.51,-4.74 29.53,3.99z"/>
   <path class="fil0 str0" d="M12465.23 440l0 0c7.05,8.66 5.31,21.24 -3.85,27.81l-49.76 35.55c-9.16,6.57 -22.4,4.75 -29.56,-3.97l0 -0.05c-6.99,-8.73 -5.35,-21.26 3.91,-27.81l49.65 -35.5c9.27,-6.57 22.51,-4.75 29.61,3.97z"/>
   <path class="fil0 str0" d="M12288.84 641.43l0 0c7.18,8.72 5.48,21.19 -3.73,27.74l-49.77 35.58c-9.14,6.55 -22.52,4.75 -29.49,-3.98l0 0c-7.15,-8.73 -5.41,-21.19 3.72,-27.74l49.85 -35.57c9.08,-6.57 22.37,-4.75 29.42,3.97z"/>
   <path class="fil0 str0" d="M12503.88 539.48l0 0c7.05,8.72 5.41,21.18 -3.85,27.74l-49.64 35.62c-9.28,6.57 -22.52,4.69 -29.62,-4.03l0 0c-7.04,-8.74 -5.31,-21.19 3.85,-27.76l49.77 -35.56c9.15,-6.55 22.39,-4.74 29.49,3.99z"/>
   <path class="fil0 str0" d="M6848.08 444.85l0 0c7.05,8.74 5.31,21.19 -3.85,27.68l-49.76 35.62c-9.16,6.57 -22.4,4.76 -29.5,-3.96l0 0c-7.05,-8.72 -5.43,-21.25 3.85,-27.74l49.65 -35.63c9.27,-6.51 22.45,-4.69 29.61,4.03z"/>
   <path class="fil0 str0" d="M6992.35 443.88l0 0.12c7.04,8.74 5.4,21.25 -3.87,27.76l-49.69 35.56c-9.16,6.55 -22.46,4.76 -29.5,-3.96l0 0c-7.16,-8.74 -5.42,-21.33 3.73,-27.82l49.83 -35.57c9.15,-6.51 22.45,-4.69 29.5,3.91z"/>
   <path class="fil0 str0" d="M7164.52 444.41l0 0c7.16,8.81 5.42,21.2 -3.73,27.77l-49.77 35.62c-9.15,6.57 -22.51,4.75 -29.5,-3.97l0 0c-7.16,-8.74 -5.46,-21.25 3.73,-27.82l49.77 -35.56c9.16,-6.55 22.45,-4.75 29.5,3.96z"/>
   <path class="fil0 str0" d="M6648.82 545.71l0 0c7.16,8.72 5.41,21.31 -3.73,27.86l-49.83 35.44c-9.16,6.57 -22.45,4.83 -29.5,-3.96l0 0c-7.1,-8.72 -5.42,-21.19 3.8,-27.74l49.7 -35.57c9.22,-6.57 22.52,-4.75 29.56,3.97z"/>
   <path class="fil0 str0" d="M6844.94 544.86l0 0c7.18,8.74 5.49,21.19 -3.72,27.76l-49.75 35.56c-9.16,6.55 -22.54,4.76 -29.52,-3.98l-0.06 0c-7.11,-8.72 -5.4,-21.31 3.79,-27.86l49.79 -35.44c9.13,-6.57 22.43,-4.82 29.47,3.96z"/>
   <path class="fil0 str0" d="M7006.61 544.33l0 0c7.16,8.84 5.41,21.3 -3.73,27.86l-49.77 35.58c-9.15,6.55 -22.39,4.75 -29.55,-3.99l0 -0.11c-7.05,-8.72 -5.37,-21.2 3.79,-27.77l49.76 -35.56c9.16,-6.55 22.52,-4.73 29.5,3.99z"/>
   <path class="fil0 str0" d="M7180.81 543.83l0.08 0c6.99,8.81 5.35,21.27 -3.78,27.82l-49.78 35.57c-9.27,6.57 -22.51,4.75 -29.55,-3.97l0 0c-7.1,-8.74 -5.37,-21.19 3.79,-27.76l49.77 -35.6c9.15,-6.57 22.39,-4.78 29.47,3.94z"/>
   <path class="fil0 str0" d="M6671.68 646.22l0 0c7.15,8.78 5.48,21.31 -3.73,27.88l-49.78 35.5c-9.13,6.55 -22.44,4.8 -29.49,-3.92l0 0c-7.16,-8.84 -5.43,-21.31 3.75,-27.86l49.77 -35.56c9.13,-6.57 22.51,-4.76 29.48,3.96z"/>
   <path class="fil0 str0" d="M6831.47 645.85l0.05 0c7.11,8.74 5.43,21.3 -3.72,27.88l-49.83 35.44c-9.15,6.57 -22.45,4.88 -29.5,-3.97l0 0c-7.04,-8.73 -5.42,-21.18 3.73,-27.75l49.77 -35.57c9.21,-6.57 22.51,-4.75 29.5,3.97z"/>
   <path class="fil0 str0" d="M6988.24 645.85l0 0c7.05,8.74 5.43,21.3 -3.85,27.88l-49.76 35.44c-9.14,6.57 -22.4,4.88 -29.5,-3.97l0 0c-7.05,-8.73 -5.29,-21.18 3.84,-27.75l49.77 -35.57c9.16,-6.57 22.42,-4.75 29.5,3.97z"/>
   <path class="fil0 str0" d="M7366.07 444.41l0 0c6.98,8.81 5.31,21.2 -3.85,27.77l-49.71 35.62c-9.27,6.57 -22.45,4.75 -29.61,-3.97l0 0c-7.05,-8.74 -5.29,-21.25 3.84,-27.82l49.77 -35.56c9.21,-6.55 22.4,-4.75 29.56,3.96z"/>
   <path class="fil0 str0" d="M7167.36 645.85l0 0c7.02,8.74 5.29,21.3 -3.87,27.88l-49.71 35.44c-9.19,6.57 -22.43,4.88 -29.49,-3.97l-0.12 0c-7.05,-8.73 -5.29,-21.18 3.93,-27.75l49.71 -35.57c9.19,-6.57 22.37,-4.75 29.55,3.97z"/>
   <path class="fil0 str0" d="M7382.27 543.83l0 0c7.16,8.81 5.41,21.27 -3.75,27.82l-49.81 35.57c-9.16,6.57 -22.42,4.75 -29.5,-3.97l0 0c-7.04,-8.74 -5.42,-21.19 3.85,-27.76l49.71 -35.6c9.16,-6.57 22.46,-4.78 29.5,3.94z"/>
   <path class="fil0 str0" d="M7545.12 444.41l0 0c7.04,8.81 5.4,21.2 -3.85,27.77l-49.77 35.62c-9.16,6.57 -22.33,4.75 -29.5,-3.97l0 0c-7.04,-8.74 -5.28,-21.25 3.85,-27.82l49.77 -35.56c9.16,-6.55 22.4,-4.75 29.5,3.96z"/>
   <path class="fil0 str0" d="M7368.71 645.85l0.08 0c7.08,8.74 5.35,21.3 -3.75,27.88l-49.83 35.44c-9.15,6.57 -22.45,4.88 -29.49,-3.97l0 0c-7.04,-8.73 -5.41,-21.18 3.73,-27.75l49.76 -35.57c9.22,-6.57 22.54,-4.75 29.5,3.97z"/>
   <path class="fil0 str0" d="M7561.38 543.83l0 0c7.16,8.81 5.34,21.27 -3.79,27.82l-49.79 35.57c-9.2,6.57 -22.37,4.75 -29.48,-3.97l-0.06 0c-6.98,-8.74 -5.36,-21.19 3.91,-27.76l49.65 -35.6c9.27,-6.57 22.51,-4.78 29.56,3.94z"/>
   <path class="fil1" d="M235.5 8492.84l0 160.27 232.68 0 0 -160.27 126.22 0 0 438.72 -126.22 0 0 -173.74 -232.68 0 0 173.74 -126.22 0 0 -438.72 126.22 0zm633.65 272.91l167.42 0 -72.11 -168.99 -19.76 0 -75.55 168.99zm178.58 -272.91l201.78 438.72 -133.96 0 -30.03 -64.25 -262.75 0 -29.21 64.25 -135.65 0 206.07 -438.72 183.74 0zm310.82 0l65.25 179.29c4,10.59 12.02,15.88 24.04,15.88l120.21 0 71.27 -195.17 129.63 0 -127.08 345.1c-5.14,13.75 -12.3,26.31 -21.45,37.69 -9.17,11.36 -19.9,21.15 -32.21,29.34 -12.3,8.2 -25.75,14.68 -40.34,19.44 -14.61,4.76 -29.92,7.15 -45.95,7.15l-139.94 0 0 -98.38 134.79 0c14.89,0 25.19,-7.15 30.93,-21.42l6.01 -19.05 -91.03 0c-37.77,0 -67.53,-7.53 -89.29,-22.61 -21.75,-15.08 -38.34,-38.48 -49.8,-70.2l-75.54 -207.07 130.5 0zm598.43 0l0 167.13c0,26.59 6.87,46.02 20.75,58.58 13.74,12.43 33.64,18.64 59.38,18.64l134.52 0 0 -244.34 126.21 0 0 438.72 -126.21 0 0 -89.65 -149.39 0c-28.63,0 -54.67,-4.23 -78.15,-12.69 -23.46,-8.47 -43.62,-20.24 -60.52,-35.31 -16.89,-15.07 -29.91,-33.32 -39.05,-54.73 -9.16,-21.43 -13.76,-45.09 -13.76,-71l0 -175.33 126.22 0zm552.1 0l0 160.27 232.68 0 0 -160.27 126.2 0 0 438.72 -126.2 0 0 -173.74 -232.68 0 0 173.74 -126.23 0 0 -438.72 126.23 0zm562.38 219.76c0,20.09 3.55,38.21 10.73,54.34 7.15,16.12 17.17,29.88 30.05,41.24 12.87,11.38 27.76,20.11 44.64,26.18 16.87,6.09 35.33,9.13 55.38,9.13 19.47,0 37.77,-3.04 54.95,-9.13 17.17,-6.07 32.06,-14.8 44.64,-26.18 12.61,-11.37 22.48,-25.13 29.62,-41.24 7.18,-16.13 10.73,-34.26 10.73,-54.34 0,-20.1 -3.55,-38.21 -10.73,-54.34 -7.14,-16.13 -17.01,-29.88 -29.62,-41.26 -12.59,-11.36 -27.48,-20.09 -44.64,-26.18 -17.18,-6.08 -35.48,-9.11 -54.95,-9.11 -20.05,0 -38.51,3.03 -55.38,9.11 -16.89,6.09 -31.78,14.82 -44.64,26.18 -12.88,11.39 -22.9,25.14 -30.05,41.26 -7.18,16.13 -10.73,34.25 -10.73,54.34zm406.95 0c0,34.38 -7.28,65.71 -21.9,94.01 -14.58,28.3 -33.92,52.49 -58.23,72.59 -24.33,20.11 -52.49,35.68 -84.85,46.79 -32.36,11.13 -66.13,16.67 -101.62,16.67 -35.46,0 -69.24,-5.54 -101.58,-16.67 -32.22,-11.11 -60.54,-26.69 -84.89,-46.79 -24.32,-20.1 -43.63,-44.29 -58.23,-72.59 -14.6,-28.3 -21.9,-59.63 -21.9,-94.01 0,-34.38 7.3,-65.71 21.9,-94.01 14.6,-28.3 33.92,-52.5 58.23,-72.59 24.35,-20.11 52.67,-35.7 84.89,-46.81 32.34,-11.11 66.11,-16.65 101.58,-16.65 35.48,0 69.26,5.54 101.62,16.65 32.36,11.11 60.52,26.71 84.85,46.81 24.32,20.09 43.65,44.29 58.23,72.59 14.62,28.3 21.9,59.63 21.9,94.01zm887.8 -219.76l0 438.72 -126.2 0 0 -335.58 -218.95 0 0 335.58 -126.21 0 0 -438.72 471.36 0zm360.9 0c28.61,0 55.1,4.24 79.41,12.71 24.21,8.46 45.09,20.35 62.55,35.69 17.31,15.33 31.06,33.72 41.07,55.12 10.02,21.43 15.02,45.09 15.02,71.01 0,25.91 -5,49.44 -15.02,70.61 -10.02,21.16 -23.62,39.12 -41.07,53.94 -17.46,14.82 -38.2,26.19 -62.55,34.11 -24.31,7.95 -50.66,11.91 -79.27,11.91l-154.11 0 0 93.62 -126.21 0 0 -438.72 280.18 0zm-153.97 238.79l149.4 0c22.33,0 40.63,-5.28 54.96,-15.86 14.28,-10.58 21.46,-26.71 21.46,-48.39 0,-21.16 -7.18,-37.82 -21.46,-49.97 -14.33,-12.17 -32.64,-18.25 -54.96,-18.25l-149.4 0 0 132.47zm541.79 -19.03c0,20.09 3.57,38.21 10.73,54.34 7.14,16.12 17.16,29.88 30.05,41.24 12.88,11.38 27.78,20.11 44.64,26.18 16.89,6.09 35.34,9.13 55.37,9.13 19.47,0 37.79,-3.04 54.97,-9.13 17.17,-6.07 32.05,-14.8 44.62,-26.18 12.62,-11.37 22.48,-25.13 29.62,-41.24 7.18,-16.13 10.74,-34.26 10.74,-54.34 0,-20.1 -3.56,-38.21 -10.74,-54.34 -7.14,-16.13 -17,-29.88 -29.62,-41.26 -12.58,-11.36 -27.46,-20.09 -44.62,-26.18 -17.18,-6.08 -35.5,-9.11 -54.97,-9.11 -20.03,0 -38.48,3.03 -55.37,9.11 -16.87,6.09 -31.77,14.82 -44.64,26.18 -12.89,11.39 -22.91,25.14 -30.05,41.26 -7.16,16.13 -10.73,34.25 -10.73,54.34zm406.97 0c0,34.38 -7.3,65.71 -21.91,94.01 -14.6,28.3 -33.91,52.49 -58.23,72.59 -24.34,20.11 -52.51,35.68 -84.89,46.79 -32.32,11.13 -66.1,16.67 -101.58,16.67 -35.5,0 -69.26,-5.54 -101.6,-16.67 -32.21,-11.11 -60.53,-26.69 -84.86,-46.79 -24.33,-20.1 -43.65,-44.29 -58.23,-72.59 -14.62,-28.3 -21.91,-59.63 -21.91,-94.01 0,-34.38 7.29,-65.71 21.91,-94.01 14.58,-28.3 33.91,-52.5 58.23,-72.59 24.33,-20.11 52.65,-35.7 84.86,-46.81 32.34,-11.11 66.09,-16.65 101.6,-16.65 35.47,0 69.26,5.54 101.58,16.65 32.38,11.11 60.55,26.71 84.89,46.81 24.33,20.09 43.63,44.29 58.23,72.59 14.61,28.3 21.91,59.63 21.91,94.01zm203.48 -219.76l0 278.47 248.99 -278.47 121.06 0 0 438.72 -126.23 0 0 -276.88 -248.97 276.88 -121.06 0 0 -438.72 126.21 0zm775.32 158.67c8.58,0 14.45,-2.25 17.59,-6.74 3.16,-4.5 4.74,-10.72 4.74,-18.64 0,-13.23 -8.6,-23.41 -25.77,-30.55 -17.18,-7.14 -43.77,-10.72 -79.86,-10.72 -21.74,0 -40.75,0.67 -57.1,1.99 -16.3,1.32 -31.31,3.7 -45.06,7.14 -13.75,3.43 -27.18,8.2 -40.35,14.27 -13.16,6.09 -27.49,13.63 -42.92,22.63l-52.36 -83.31c19.45,-12.68 38.49,-23.14 57.07,-31.34 18.6,-8.19 37.5,-14.82 56.67,-19.83 19.18,-5.04 38.78,-8.6 58.83,-10.71 20.03,-2.12 40.93,-3.17 62.67,-3.17 86.43,0 149.1,14.54 188.03,43.61 32.07,23.28 48.08,55.81 48.08,97.6 0,12.16 -2.43,24.06 -7.32,35.69 -4.83,11.62 -11.88,20.63 -21.04,26.98 18.63,12.17 32.96,26.31 42.81,42.43 9.86,16.13 14.76,36.62 14.76,61.48 0,22.75 -5.76,43.23 -17.07,61.48 -11.44,18.25 -27.6,34.77 -48.64,49.58 -22.18,15.34 -49.93,26.06 -83.41,32.14 -33.37,6.09 -71,9.12 -112.77,9.12 -26.92,0 -51.67,-1.32 -74.28,-3.96 -22.61,-2.64 -43.93,-6.75 -63.96,-12.3 -20.04,-5.57 -39.64,-12.83 -58.82,-21.82 -19.17,-8.99 -38.48,-19.84 -57.94,-32.53l57.51 -85.68c28.63,17.45 59.67,30.81 93.15,40.06 33.52,9.25 70,13.88 109.48,13.88 19.46,0 37.34,-0.8 53.66,-2.38 16.31,-1.58 30.07,-4.37 41.2,-8.33 11.17,-3.97 19.91,-9.66 26.2,-17.06 6.3,-7.41 9.46,-16.66 9.46,-27.77 0,-11.11 -4.01,-19.04 -12.02,-23.81 -8.03,-4.76 -22.61,-7.13 -43.79,-7.13l-192.34 0 0 -102.35 194.91 0zm558.1 -158.67c21.16,0 40.92,2.92 59.23,8.72 18.33,5.83 34.06,14.03 47.23,24.6 13.16,10.59 23.46,23.28 30.91,38.08 7.44,14.81 11.15,31.48 11.15,49.98 0,13.75 -2.72,26.84 -8.17,39.27 -5.42,12.43 -13.87,22.35 -25.31,29.74 20.62,11.12 36.63,25.27 48.07,42.45 11.44,17.2 17.17,39.79 17.17,67.83 0,19.04 -4.01,37.01 -12.02,53.95 -8.01,16.91 -19.02,31.59 -33.07,44.01 -14,12.45 -30.46,22.22 -49.37,29.35 -18.88,7.16 -39.19,10.73 -60.94,10.73l-333.13 0 0 -438.72 308.25 0zm-182.02 163.43l181.15 0c6.29,0 12.17,-3.04 17.6,-9.12 5.46,-6.09 8.16,-12.83 8.16,-20.24 0,-5.81 -2.15,-12.17 -6.45,-19.03 -4.28,-6.88 -12.15,-10.33 -23.6,-10.33l-176.86 0 0 58.71zm0 170.58l203.48 0c9.73,0 18.04,-2.92 24.9,-8.87 6.87,-5.81 10.3,-14.15 10.3,-24.87 0,-10.17 -3.57,-18.63 -10.73,-25.24 -7.14,-6.76 -16.46,-10.05 -27.92,-10.05l-200.03 0 0 69.02zm552.93 -114.24c0,20.09 3.57,38.21 10.73,54.34 7.16,16.12 17.19,29.88 30.05,41.24 12.88,11.38 27.76,20.11 44.64,26.18 16.89,6.09 35.34,9.13 55.37,9.13 19.47,0 37.79,-3.04 54.98,-9.13 17.16,-6.07 32.06,-14.8 44.63,-26.18 12.59,-11.37 22.46,-25.13 29.62,-41.24 7.16,-16.13 10.74,-34.26 10.74,-54.34 0,-20.1 -3.58,-38.21 -10.74,-54.34 -7.16,-16.13 -17.03,-29.88 -29.62,-41.26 -12.58,-11.36 -27.48,-20.09 -44.63,-26.18 -17.19,-6.08 -35.51,-9.11 -54.98,-9.11 -20.03,0 -38.48,3.03 -55.37,9.11 -16.89,6.09 -31.77,14.82 -44.64,26.18 -12.86,11.39 -22.89,25.14 -30.05,41.26 -7.16,16.13 -10.73,34.25 -10.73,54.34zm406.96 0c0,34.38 -7.27,65.71 -21.9,94.01 -14.58,28.3 -33.91,52.49 -58.23,72.59 -24.32,20.11 -52.51,35.68 -84.86,46.79 -32.34,11.13 -66.11,16.67 -101.6,16.67 -35.49,0 -69.27,-5.54 -101.6,-16.67 -32.22,-11.11 -60.55,-26.69 -84.87,-46.79 -24.31,-20.1 -43.63,-44.29 -58.24,-72.59 -14.59,-28.3 -21.88,-59.63 -21.88,-94.01 0,-34.38 7.29,-65.71 21.88,-94.01 14.61,-28.3 33.94,-52.5 58.24,-72.59 24.32,-20.11 52.65,-35.7 84.87,-46.81 32.33,-11.11 66.1,-16.65 101.6,-16.65 35.48,0 69.26,5.54 101.6,16.65 32.35,11.11 60.54,26.71 84.86,46.81 24.33,20.09 43.65,44.29 58.23,72.59 14.63,28.3 21.9,59.63 21.9,94.01zm574.42 -219.76l0 334 54.09 0 0 184.83 -109.91 0 -9.44 -80.12 -329.69 0 -8.58 80.12 -110.77 0 0 -184.83 58.4 0 68.68 -334 387.22 0zm-324.55 334l198.34 0 0 -232.46 -157.13 0 -41.21 232.46zm843.14 -168.2c-17.72,-23.8 -37.91,-41.91 -60.5,-54.33 -22.63,-12.44 -52.25,-18.65 -88.89,-18.65 -42.33,0 -76.27,11.37 -101.74,34.12 -25.49,22.74 -38.19,53.67 -38.19,92.82 0,19.03 3.42,36.36 10.28,51.95 6.89,15.61 16.48,28.97 28.77,40.07 12.31,11.11 27.05,19.71 44.23,25.79 17.18,6.07 36.03,9.11 56.65,9.11 36.05,0 65.69,-6.08 88.89,-18.24 23.16,-12.17 43.06,-30.15 59.66,-53.96l97.88 50.79c-24.05,41.78 -56.53,72.98 -97.45,93.61 -40.93,20.64 -90.02,30.94 -147.27,30.94 -38.32,0 -73.82,-5.29 -106.46,-15.87 -32.77,-10.56 -60.95,-25.79 -84.85,-45.6 -23.91,-19.85 -42.64,-44.04 -56.24,-72.59 -13.59,-28.56 -20.32,-60.56 -20.32,-96 0,-35.43 6.87,-67.3 20.76,-95.61 13.87,-28.3 32.91,-52.35 57.08,-72.18 24.19,-19.85 52.52,-35.17 84.88,-46.02 32.33,-10.85 67.4,-16.25 105.15,-16.25 114.5,0 196.34,41.51 245.58,124.54l-97.91 51.56zm642.24 -165.81l0 104.71 -184.58 0 0 334 -126.21 0 0 -334 -184.6 0 0 -104.71 495.4 0zm375.24 0c21.16,0 40.93,2.92 59.23,8.72 18.33,5.83 34.05,14.03 47.23,24.6 13.18,10.59 23.45,23.28 30.89,38.08 7.46,14.81 11.17,31.48 11.17,49.98 0,13.75 -2.72,26.84 -8.17,39.27 -5.42,12.43 -13.85,22.35 -25.31,29.74 20.62,11.12 36.63,25.27 48.07,42.45 11.44,17.2 17.17,39.79 17.17,67.83 0,19.04 -4.01,37.01 -12.02,53.95 -8.01,16.91 -19.02,31.59 -33.07,44.01 -14.01,12.45 -30.46,22.22 -49.35,29.35 -18.9,7.16 -39.19,10.73 -60.95,10.73l-333.16 0 0 -438.72 308.27 0zm-182.02 163.43l181.14 0c6.3,0 12.18,-3.04 17.6,-9.12 5.45,-6.09 8.18,-12.83 8.18,-20.24 0,-5.81 -2.16,-12.17 -6.46,-19.03 -4.28,-6.88 -12.15,-10.33 -23.59,-10.33l-176.87 0 0 58.71zm0 170.58l203.48 0c9.73,0 18.03,-2.92 24.9,-8.87 6.86,-5.81 10.3,-14.15 10.3,-24.87 0,-10.17 -3.57,-18.63 -10.74,-25.24 -7.14,-6.76 -16.45,-10.05 -27.92,-10.05l-200.02 0 0 69.02zm867.18 -334l0 104.71 -310.82 0 0 59.51 279.06 0 0 104.7 -279.06 0 0 61.88 321.98 0 0 107.9 -448.23 0 0 -438.72 437.06 0zm212.92 0l0 160.27 232.69 0 0 -160.27 126.23 0 0 438.72 -126.23 0 0 -173.74 -232.69 0 0 173.74 -126.21 0 0 -438.72 126.21 0zm565.81 0l0 160.27 232.69 0 0 -160.27 126.23 0 0 438.72 -126.23 0 0 -173.74 -232.69 0 0 173.74 -126.21 0 0 -438.72 126.21 0zm633.66 272.91l167.42 0 -72.1 -168.99 -19.77 0 -75.55 168.99zm178.58 -272.91l201.77 438.72 -133.94 0 -30.05 -64.25 -262.75 0 -29.2 64.25 -135.66 0 206.09 -438.72 183.73 0zm728.09 438.72l-126.23 0 0 -92.04 -147.67 0 -50.66 92.04 -137.36 0 71.25 -119c-25.76,-13.76 -46.92,-32.93 -63.51,-57.52 -16.62,-24.6 -24.93,-53.8 -24.93,-87.66 0,-25.92 5.02,-49.71 15.04,-71.4 10.02,-21.68 24.05,-40.05 42.07,-55.13 18.02,-15.08 39.06,-26.84 63.09,-35.29 24.05,-8.47 50.38,-12.71 79.03,-12.71l279.88 0 0 438.72zm-275.6 -332.4c-22.34,0 -40.77,5.95 -55.39,17.84 -14.6,11.91 -21.89,28.71 -21.89,50.38 0,21.15 7.29,37.29 21.89,48.39 14.62,11.12 33.06,16.66 55.39,16.66l149.37 0 0 -133.27 -149.37 0zm-8338.75 748.88l0 154.7 111.64 0 114.18 -154.7 145.96 0 -152.83 203.08 163.15 235.63 -150.29 0 -116.74 -176.91 -115.07 0 0 176.91 -126.2 0 0 -438.71 126.2 0zm529.77 219.76c0,20.09 3.57,38.2 10.74,54.34 7.14,16.13 17.18,29.87 30.05,41.25 12.88,11.36 27.78,20.09 44.66,26.18 16.86,6.08 35.32,9.12 55.37,9.12 19.47,0 37.77,-3.04 54.96,-9.12 17.18,-6.09 32.04,-14.82 44.61,-26.18 12.61,-11.39 22.48,-25.13 29.64,-41.25 7.16,-16.14 10.73,-34.26 10.73,-54.34 0,-20.1 -3.57,-38.21 -10.73,-54.34 -7.16,-16.14 -17.03,-29.89 -29.64,-41.26 -12.58,-11.37 -27.44,-20.09 -44.61,-26.17 -17.19,-6.09 -35.49,-9.13 -54.96,-9.13 -20.05,0 -38.51,3.04 -55.37,9.13 -16.89,6.08 -31.79,14.8 -44.66,26.17 -12.87,11.38 -22.91,25.13 -30.05,41.26 -7.17,16.13 -10.74,34.25 -10.74,54.34zm406.95 0c0,34.37 -7.28,65.7 -21.86,94 -14.62,28.3 -33.93,52.5 -58.25,72.59 -24.35,20.11 -52.51,35.7 -84.87,46.81 -32.33,11.11 -66.1,16.66 -101.6,16.66 -35.48,0 -69.26,-5.55 -101.6,-16.66 -32.21,-11.11 -60.54,-26.71 -84.84,-46.81 -24.35,-20.09 -43.68,-44.29 -58.26,-72.59 -14.6,-28.3 -21.9,-59.63 -21.9,-94 0,-34.39 7.3,-65.71 21.9,-94.01 14.58,-28.3 33.92,-52.49 58.26,-72.59 24.3,-20.11 52.63,-35.69 84.84,-46.81 32.34,-11.12 66.11,-16.66 101.6,-16.66 35.49,0 69.27,5.54 101.6,16.66 32.36,11.12 60.52,26.71 84.87,46.81 24.33,20.1 43.63,44.29 58.25,72.59 14.58,28.3 21.86,59.62 21.86,94.01zm237.86 -219.76l147.68 292.74 3.43 0 159.69 -292.74 152 0 0 438.71 -126.21 0 0 -276.06 -138.23 276.06 -101.34 0 -135.65 -276.06 0 276.06 -122.77 0 0 -438.71 161.41 0zm1014.85 0l0 438.71 -126.19 0 0 -335.57 -218.95 0 0 335.57 -126.23 0 0 -438.71 471.37 0zm274.76 272.9l167.45 0 -72.14 -168.97 -19.73 0 -75.58 168.97zm178.59 -272.9l201.76 438.71 -133.94 0 -30.03 -64.25 -262.77 0 -29.17 64.25 -135.67 0 206.07 -438.71 183.74 0zm391.52 0l0 160.27 232.68 0 0 -160.27 126.21 0 0 438.71 -126.21 0 0 -173.74 -232.68 0 0 173.74 -126.22 0 0 -438.71 126.22 0zm565.81 0l0 278.46 248.99 -278.46 121.06 0 0 438.71 -126.23 0 0 -276.86 -248.97 276.86 -121.06 0 0 -438.71 126.21 0zm912.7 438.71l-126.22 0 0 -92.02 -147.69 0 -50.64 92.02 -137.38 0 71.26 -119c-25.77,-13.74 -46.93,-32.92 -63.53,-57.51 -16.59,-24.6 -24.91,-53.8 -24.91,-87.67 0,-25.91 5.02,-49.7 15.03,-71.39 10.02,-21.68 24.05,-40.06 42.08,-55.14 18.03,-15.07 39.05,-26.83 63.1,-35.29 24.03,-8.46 50.36,-12.7 78.99,-12.7l279.91 0 0 438.71zm-275.61 -332.39c-22.33,0 -40.79,5.95 -55.37,17.84 -14.62,11.91 -21.9,28.71 -21.9,50.37 0,21.17 7.28,37.3 21.9,48.41 14.58,11.11 33.05,16.65 55.37,16.65l149.39 0 0 -133.27 -149.39 0z"/>
   <polygon class="fil1" points="3549.68,8759.4 3820.15,8759.4 3820.15,8657.07 3549.68,8657.07 "/>
   <polygon class="fil0 str1" points="4.94,7574.97 4943.05,7574.97 4943.05,1172.14 4.94,1172.14 "/>
   <polygon class="fil0 str1" points="5174.15,7574.97 7907.74,7574.97 7907.74,1174.39 5174.15,1174.39 "/>
   <polygon class="fil0 str1" points="8137.57,7574.97 13089.4,7574.97 13089.4,1171.51 8137.57,1171.51 "/>
   <polygon class="fil1" points="1455.79,2765.7 2457.75,5252.84 2540.27,5252.84 3530.41,2765.7 4479.33,2765.7 3064.79,6024.9 1915.52,6024.9 483.31,2765.7 "/>
   <polygon class="fil1" points="9717.59,2766.74 9717.59,3915.3 10483.31,3915.3 11266.69,2766.74 12268,2766.74 11219.57,4274.59 12338.69,6023.89 11307.93,6023.89 10506.86,4710.43 9717.59,4710.43 9717.59,6023.89 8851.74,6023.89 8851.74,2766.74 "/>
   <path class="fil1" d="M6966.26 2767.85l0 59.18 -866.4 0 0 -59.18 866.4 0zm0 118.59l0 55.39 -866.4 0 0 -55.39 866.4 0zm0 114.71l0 60.35 -866.4 0 0 -60.35 866.4 0zm0 119.71l0 56.04 -866.4 0 0 -56.04 866.4 0zm0 115.38l0 50.45 -866.4 0 0 -50.45 866.4 0zm0 109.89l0 55.49 -866.4 0 0 -55.49 866.4 0zm0 114.85l0 54.98 -866.4 0 0 -54.98 866.4 0zm0 500.69l0 2064.54 -866.4 0 0 -2064.54 866.4 0z"/>
   <path class="fil1" d="M4577.9 4025.36l100.67 0c15.37,0 27.96,12.54 27.96,27.93l0 628.25c0,15.39 -12.59,27.96 -27.96,27.96l-100.67 0c-15.37,0 -27.94,-12.57 -27.94,-27.96l0 -628.25c0,-15.39 12.57,-27.93 27.94,-27.93z"/>
   <path class="fil1" d="M7534.29 4025.36l100.67 0c15.37,0 27.95,12.54 27.95,27.93l0 628.25c0,15.39 -12.58,27.96 -27.95,27.96l-100.67 0c-15.36,0 -27.94,-12.57 -27.94,-27.96l0 -628.25c0,-15.39 12.58,-27.93 27.94,-27.93z"/>
   <path class="fil1" d="M12705.97 4025.36l100.65 0c15.39,0 27.95,12.54 27.95,27.93l0 628.25c0,15.39 -12.56,27.96 -27.95,27.96l-100.65 0c-15.39,0 -27.94,-12.57 -27.94,-27.96l0 -628.25c0,-15.39 12.55,-27.93 27.94,-27.93z"/>
   <polygon class="fil0 str1" points="5.28,7577.71 13089.46,7577.71 13089.46,8131.58 5.28,8131.58 "/>
   <polygon class="fil2" points="13088.39,7576.05 14285.65,6379.12 "/>
   <polygon class="fil0 str2" points="13088.39,7576.05 14285.65,6379.12 "/>
   <polygon class="fil0 str2" points="1178.84,6.85 6154.46,3.96 4944.16,1175.36 23.54,1169.56 "/>
   <polygon class="fil0 str2" points="9310.07,6.85 14262.49,8.31 13075.39,1175.36 8156.22,1166.66 "/>
   <polygon class="fil0 str2" points="6351.29,6.85 9105.88,3.96 7913.01,1175.36 5195.95,1169.56 "/>
   <polygon class="fil0 str2" points="14287.86,6971.11 14265.35,19.2 13088.33,1175.04 13095.61,8136.73 "/>
   <g>
    <path class="fil1" d="M788.48 7740.98l0 -22.42 0 0 6.59 0.16 6.51 0.48 6.42 0.79 6.32 1.08 6.2 1.39 6.08 1.67 5.97 1.95 5.84 2.22 5.68 2.48 5.53 2.74 5.38 2.99 5.19 3.22 5.04 3.46 4.84 3.68 4.65 3.89 4.46 4.11 4.24 4.3 4.04 4.5 3.79 4.68 3.59 4.86 3.33 5.04 3.09 5.18 2.83 5.36 2.58 5.48 2.3 5.65 2.01 5.77 1.74 5.89 1.43 6.01 1.13 6.1 0.82 6.22 0.49 6.29 0.17 6.37 -23.12 0 -0.13 -5.23 -0.41 -5.17 -0.66 -5.08 -0.93 -5 -1.17 -4.91 -1.42 -4.81 -1.65 -4.73 -1.88 -4.59 -2.1 -4.5 -2.33 -4.38 -2.53 -4.26 -2.73 -4.12 -2.93 -3.98 -3.13 -3.84 -3.3 -3.7 -3.48 -3.52 -3.66 -3.37 -3.81 -3.19 -3.98 -3.02 -4.12 -2.84 -4.27 -2.64 -4.4 -2.45 -4.53 -2.24 -4.66 -2.04 -4.76 -1.82 -4.89 -1.59 -5 -1.37 -5.08 -1.13 -5.18 -0.9 -5.26 -0.65 -5.35 -0.38 -5.43 -0.14 0 0zm-105.19 101.58l-23.12 0 0 0 0.17 -6.37 0.49 -6.29 0.82 -6.22 1.13 -6.11 1.44 -6 1.72 -5.88 2.02 -5.78 2.3 -5.65 2.58 -5.48 2.83 -5.36 3.09 -5.19 3.34 -5.03 3.58 -4.86 3.81 -4.68 4.03 -4.5 4.24 -4.3 4.47 -4.12 4.66 -3.88 4.83 -3.67 5.03 -3.47 5.21 -3.22 5.37 -2.99 5.54 -2.74 5.68 -2.48 5.84 -2.22 5.97 -1.95 6.08 -1.67 6.22 -1.39 6.31 -1.08 6.43 -0.79 6.51 -0.48 6.59 -0.16 0 22.42 -5.43 0.14 -5.35 0.38 -5.27 0.65 -5.19 0.9 -5.08 1.13 -5 1.37 -4.89 1.59 -4.76 1.82 -4.66 2.04 -4.54 2.24 -4.41 2.45 -4.27 2.64 -4.11 2.83 -3.99 3.03 -3.82 3.2 -3.65 3.36 -3.48 3.52 -3.31 3.7 -3.13 3.84 -2.92 3.98 -2.74 4.13 -2.53 4.25 -2.33 4.38 -2.1 4.5 -1.88 4.59 -1.64 4.72 -1.42 4.82 -1.18 4.92 -0.93 4.99 -0.66 5.08 -0.41 5.17 -0.13 5.23 0 0zm105.19 101.64l0 22.42 0 0 -6.59 -0.16 -6.51 -0.48 -6.43 -0.79 -6.31 -1.08 -6.22 -1.39 -6.09 -1.67 -5.97 -1.96 -5.83 -2.22 -5.68 -2.48 -5.53 -2.74 -5.38 -2.98 -5.22 -3.24 -5.02 -3.46 -4.83 -3.67 -4.66 -3.88 -4.47 -4.12 -4.24 -4.31 -4.03 -4.49 -3.82 -4.69 -3.57 -4.86 -3.34 -5.04 -3.09 -5.19 -2.83 -5.35 -2.58 -5.5 -2.3 -5.65 -2.02 -5.77 -1.72 -5.89 -1.44 -6 -1.13 -6.12 -0.82 -6.22 -0.49 -6.3 -0.17 -6.37 23.12 0 0.13 5.25 0.41 5.16 0.66 5.08 0.93 5 1.18 4.92 1.42 4.83 1.64 4.71 1.88 4.61 2.1 4.5 2.33 4.37 2.53 4.27 2.74 4.12 2.93 3.98 3.12 3.85 3.31 3.69 3.48 3.53 3.65 3.36 3.82 3.2 3.99 3.03 4.12 2.84 4.26 2.64 4.4 2.44 4.55 2.24 4.66 2.04 4.77 1.82 4.89 1.6 4.99 1.37 5.08 1.13 5.19 0.9 5.27 0.65 5.35 0.38 5.43 0.14 0 0zm105.14 -101.64l23.12 0 0 0 -0.17 6.37 -0.49 6.3 -0.82 6.22 -1.13 6.11 -1.43 6.01 -1.74 5.9 -2.01 5.76 -2.3 5.65 -2.58 5.5 -2.83 5.35 -3.09 5.19 -3.33 5.04 -3.58 4.86 -3.8 4.69 -4.04 4.49 -4.24 4.31 -4.46 4.11 -4.65 3.89 -4.84 3.68 -5.03 3.45 -5.2 3.24 -5.39 2.98 -5.52 2.74 -5.68 2.48 -5.83 2.22 -5.97 1.96 -6.09 1.67 -6.2 1.39 -6.32 1.08 -6.42 0.79 -6.51 0.48 -6.59 0.16 0 -22.42 5.43 -0.14 5.35 -0.38 5.26 -0.65 5.18 -0.9 5.08 -1.13 4.99 -1.37 4.89 -1.6 4.77 -1.82 4.66 -2.04 4.54 -2.24 4.39 -2.44 4.26 -2.64 4.13 -2.85 3.98 -3.02 3.81 -3.19 3.66 -3.37 3.48 -3.53 3.3 -3.69 3.12 -3.85 2.94 -3.98 2.73 -4.12 2.53 -4.27 2.33 -4.37 2.1 -4.5 1.88 -4.61 1.65 -4.72 1.42 -4.82 1.17 -4.91 0.93 -5.01 0.66 -5.08 0.41 -5.16 0.13 -5.25 0 0z"/>
   </g>
   <g>
    <path class="fil1" d="M787.64 7787.98l0 -22.42 0 0 4.1 0.1 4.04 0.3 4 0.49 3.95 0.67 3.87 0.87 3.79 1.04 3.71 1.22 3.63 1.37 3.56 1.55 3.44 1.71 3.35 1.86 3.25 2.01 3.12 2.15 3.02 2.29 2.89 2.42 2.78 2.55 2.65 2.7 2.51 2.78 2.37 2.93 2.24 3.03 2.07 3.14 1.93 3.23 1.76 3.33 1.61 3.43 1.43 3.52 1.26 3.6 1.08 3.68 0.89 3.74 0.7 3.8 0.52 3.87 0.3 3.94 0.11 3.96 -23.12 0 -0.07 -2.84 -0.22 -2.78 -0.36 -2.75 -0.5 -2.7 -0.63 -2.66 -0.76 -2.58 -0.9 -2.56 -1.01 -2.48 -1.13 -2.41 -1.26 -2.37 -1.37 -2.31 -1.47 -2.22 -1.58 -2.15 -1.69 -2.07 -1.79 -2 -1.87 -1.9 -1.98 -1.81 -2.07 -1.74 -2.14 -1.63 -2.24 -1.53 -2.29 -1.43 -2.39 -1.32 -2.44 -1.21 -2.5 -1.09 -2.59 -0.99 -2.65 -0.86 -2.69 -0.74 -2.75 -0.61 -2.79 -0.49 -2.84 -0.35 -2.9 -0.2 -2.94 -0.08 0 0zm-56.81 54.85l-23.12 0 0 0 0.11 -3.96 0.3 -3.94 0.52 -3.87 0.7 -3.8 0.89 -3.74 1.08 -3.68 1.26 -3.6 1.43 -3.52 1.61 -3.43 1.76 -3.33 1.93 -3.23 2.07 -3.14 2.24 -3.03 2.37 -2.93 2.51 -2.78 2.65 -2.7 2.78 -2.55 2.89 -2.42 3.02 -2.29 3.13 -2.15 3.25 -2.01 3.34 -1.86 3.46 -1.71 3.54 -1.54 3.62 -1.38 3.72 -1.22 3.8 -1.04 3.86 -0.86 3.95 -0.68 4.01 -0.49 4.04 -0.3 4.1 -0.1 0 22.42 -2.94 0.08 -2.9 0.2 -2.85 0.35 -2.79 0.48 -2.74 0.62 -2.7 0.74 -2.64 0.86 -2.58 0.98 -2.52 1.1 -2.44 1.21 -2.38 1.32 -2.31 1.43 -2.23 1.53 -2.14 1.63 -2.07 1.74 -1.98 1.81 -1.87 1.9 -1.79 2 -1.69 2.07 -1.58 2.15 -1.47 2.22 -1.37 2.31 -1.26 2.37 -1.13 2.41 -1.01 2.48 -0.9 2.56 -0.76 2.58 -0.63 2.66 -0.5 2.7 -0.36 2.75 -0.22 2.78 -0.07 2.84 0 0zm56.81 54.87l0 22.42 0 0 -4.1 -0.1 -4.04 -0.3 -4.01 -0.49 -3.95 -0.68 -3.86 -0.86 -3.8 -1.04 -3.72 -1.22 -3.63 -1.38 -3.53 -1.55 -3.46 -1.7 -3.34 -1.87 -3.25 -2 -3.15 -2.17 -3 -2.28 -2.89 -2.42 -2.78 -2.55 -2.66 -2.7 -2.5 -2.79 -2.37 -2.91 -2.24 -3.05 -2.07 -3.14 -1.92 -3.21 -1.78 -3.35 -1.6 -3.44 -1.43 -3.5 -1.26 -3.6 -1.08 -3.69 -0.89 -3.74 -0.7 -3.8 -0.52 -3.87 -0.3 -3.94 -0.11 -3.96 23.12 0 0.07 2.84 0.22 2.78 0.36 2.75 0.5 2.7 0.63 2.66 0.76 2.59 0.9 2.54 1.01 2.5 1.14 2.42 1.24 2.35 1.38 2.31 1.47 2.24 1.58 2.13 1.69 2.07 1.8 2.01 1.86 1.9 1.98 1.81 2.07 1.74 2.16 1.64 2.21 1.53 2.31 1.42 2.38 1.33 2.44 1.2 2.53 1.11 2.57 0.98 2.64 0.86 2.7 0.74 2.74 0.62 2.79 0.48 2.85 0.35 2.9 0.2 2.94 0.08 0 0zm56.8 -54.87l23.12 0 0 0 -0.11 3.96 -0.3 3.94 -0.52 3.87 -0.7 3.8 -0.89 3.74 -1.08 3.69 -1.26 3.6 -1.43 3.5 -1.6 3.44 -1.78 3.35 -1.92 3.21 -2.07 3.14 -2.24 3.05 -2.37 2.91 -2.5 2.79 -2.66 2.7 -2.78 2.55 -2.89 2.42 -3 2.28 -3.14 2.17 -3.25 2 -3.35 1.87 -3.44 1.7 -3.54 1.55 -3.65 1.38 -3.71 1.22 -3.79 1.04 -3.87 0.87 -3.95 0.67 -4 0.49 -4.04 0.3 -4.1 0.1 0 -22.42 2.94 -0.08 2.9 -0.2 2.84 -0.35 2.79 -0.49 2.75 -0.61 2.69 -0.74 2.65 -0.86 2.57 -0.98 2.52 -1.11 2.44 -1.2 2.39 -1.33 2.29 -1.42 2.22 -1.53 2.16 -1.64 2.07 -1.74 1.98 -1.81 1.86 -1.9 1.8 -2.01 1.69 -2.07 1.58 -2.13 1.47 -2.24 1.38 -2.31 1.24 -2.35 1.14 -2.42 1.01 -2.5 0.9 -2.54 0.76 -2.59 0.63 -2.66 0.5 -2.7 0.36 -2.75 0.22 -2.78 0.07 -2.84 0 0z"/>
   </g>
   <g>
    <path class="fil1" d="M12338.75 7740.98l0 -22.42 0 0 6.59 0.16 6.5 0.48 6.42 0.79 6.31 1.08 6.22 1.39 6.09 1.67 5.96 1.95 5.83 2.22 5.68 2.48 5.53 2.74 5.37 2.99 5.21 3.22 5.03 3.47 4.83 3.67 4.67 3.89 4.45 4.11 4.24 4.29 4.05 4.51 3.79 4.68 3.59 4.86 3.33 5.04 3.09 5.18 2.83 5.36 2.58 5.48 2.3 5.65 2.01 5.77 1.74 5.89 1.43 6.01 1.13 6.1 0.82 6.22 0.49 6.29 0.17 6.37 -23.12 0 -0.13 -5.23 -0.41 -5.17 -0.66 -5.08 -0.93 -5 -1.17 -4.91 -1.42 -4.81 -1.65 -4.73 -1.88 -4.59 -2.1 -4.5 -2.33 -4.38 -2.53 -4.26 -2.73 -4.12 -2.93 -3.98 -3.13 -3.84 -3.29 -3.69 -3.5 -3.53 -3.65 -3.37 -3.81 -3.19 -3.99 -3.03 -4.11 -2.83 -4.27 -2.64 -4.41 -2.45 -4.53 -2.24 -4.66 -2.04 -4.77 -1.82 -4.88 -1.59 -4.99 -1.37 -5.08 -1.13 -5.19 -0.9 -5.26 -0.65 -5.34 -0.38 -5.43 -0.14 0 0zm-105.18 101.58l-23.12 0 0 0 0.17 -6.37 0.49 -6.29 0.82 -6.22 1.13 -6.1 1.43 -6.01 1.74 -5.89 2.01 -5.77 2.3 -5.65 2.58 -5.48 2.83 -5.36 3.09 -5.18 3.33 -5.04 3.59 -4.86 3.79 -4.68 4.05 -4.51 4.24 -4.29 4.45 -4.11 4.67 -3.89 4.83 -3.67 5.03 -3.47 5.21 -3.22 5.37 -2.99 5.53 -2.74 5.7 -2.48 5.83 -2.22 5.97 -1.95 6.08 -1.67 6.22 -1.39 6.31 -1.08 6.43 -0.79 6.51 -0.48 6.59 -0.16 0 22.42 -5.43 0.14 -5.35 0.38 -5.27 0.65 -5.19 0.9 -5.08 1.13 -5 1.37 -4.89 1.59 -4.77 1.82 -4.66 2.04 -4.53 2.24 -4.41 2.45 -4.27 2.64 -4.11 2.83 -3.99 3.03 -3.81 3.19 -3.65 3.37 -3.5 3.53 -3.29 3.69 -3.13 3.84 -2.93 3.98 -2.73 4.12 -2.53 4.26 -2.33 4.38 -2.1 4.5 -1.88 4.59 -1.65 4.73 -1.42 4.81 -1.17 4.91 -0.93 5 -0.66 5.08 -0.41 5.17 -0.13 5.23 0 0zm105.18 101.64l0 22.42 0 0 -6.59 -0.16 -6.51 -0.48 -6.43 -0.79 -6.31 -1.08 -6.22 -1.39 -6.09 -1.67 -5.97 -1.96 -5.82 -2.22 -5.7 -2.48 -5.52 -2.74 -5.38 -2.98 -5.22 -3.24 -5.02 -3.46 -4.83 -3.67 -4.67 -3.89 -4.45 -4.11 -4.24 -4.3 -4.05 -4.5 -3.8 -4.69 -3.58 -4.86 -3.33 -5.04 -3.09 -5.19 -2.83 -5.35 -2.58 -5.5 -2.3 -5.65 -2.01 -5.76 -1.74 -5.9 -1.43 -6.01 -1.13 -6.11 -0.82 -6.22 -0.49 -6.3 -0.17 -6.37 23.12 0 0.13 5.25 0.41 5.16 0.66 5.08 0.93 5.01 1.17 4.91 1.42 4.82 1.65 4.72 1.88 4.61 2.1 4.5 2.33 4.37 2.53 4.27 2.73 4.12 2.94 3.98 3.12 3.85 3.29 3.68 3.5 3.54 3.65 3.37 3.81 3.19 3.99 3.03 4.12 2.84 4.26 2.64 4.4 2.44 4.54 2.24 4.66 2.04 4.78 1.82 4.89 1.6 4.99 1.37 5.08 1.13 5.19 0.9 5.27 0.65 5.35 0.38 5.43 0.14 0 0zm105.14 -101.64l23.12 0 0 0 -0.17 6.37 -0.49 6.3 -0.82 6.22 -1.13 6.11 -1.43 6.01 -1.74 5.9 -2.01 5.76 -2.3 5.65 -2.58 5.5 -2.83 5.35 -3.09 5.19 -3.33 5.04 -3.58 4.86 -3.8 4.69 -4.05 4.5 -4.24 4.3 -4.45 4.11 -4.67 3.89 -4.83 3.67 -5.02 3.46 -5.22 3.24 -5.38 2.98 -5.52 2.74 -5.68 2.48 -5.82 2.22 -5.96 1.96 -6.1 1.67 -6.22 1.39 -6.31 1.08 -6.42 0.79 -6.5 0.48 -6.59 0.16 0 -22.42 5.43 -0.14 5.34 -0.38 5.26 -0.65 5.19 -0.9 5.08 -1.13 4.98 -1.37 4.88 -1.6 4.78 -1.82 4.66 -2.04 4.54 -2.24 4.4 -2.44 4.26 -2.64 4.12 -2.84 3.99 -3.03 3.81 -3.19 3.65 -3.37 3.5 -3.54 3.29 -3.68 3.12 -3.85 2.94 -3.98 2.73 -4.12 2.53 -4.27 2.33 -4.37 2.1 -4.5 1.88 -4.61 1.65 -4.72 1.42 -4.82 1.17 -4.91 0.93 -5.01 0.66 -5.08 0.41 -5.16 0.13 -5.25 0 0z"/>
   </g>
   <g>
    <path class="fil1" d="M12337.97 7787.98l0 -22.42 0 0 4.1 0.1 4.04 0.3 4 0.49 3.95 0.67 3.87 0.87 3.79 1.04 3.72 1.22 3.62 1.38 3.54 1.54 3.46 1.71 3.35 1.86 3.24 2.01 3.11 2.14 3.04 2.3 2.9 2.43 2.77 2.55 2.64 2.69 2.51 2.78 2.37 2.93 2.24 3.03 2.07 3.14 1.93 3.23 1.76 3.33 1.61 3.43 1.43 3.52 1.26 3.6 1.08 3.68 0.89 3.74 0.7 3.8 0.52 3.87 0.3 3.94 0.11 3.96 -23.12 0 -0.07 -2.84 -0.22 -2.78 -0.36 -2.75 -0.5 -2.7 -0.63 -2.66 -0.76 -2.58 -0.9 -2.56 -1.01 -2.48 -1.13 -2.41 -1.26 -2.37 -1.37 -2.31 -1.47 -2.22 -1.58 -2.15 -1.69 -2.07 -1.79 -2 -1.88 -1.91 -1.97 -1.81 -2.06 -1.73 -2.14 -1.62 -2.25 -1.54 -2.3 -1.43 -2.37 -1.32 -2.44 -1.21 -2.52 -1.1 -2.58 -0.98 -2.64 -0.86 -2.69 -0.74 -2.75 -0.61 -2.79 -0.49 -2.84 -0.35 -2.9 -0.2 -2.94 -0.08 0 0zm-56.82 54.85l-23.12 0 0 0 0.11 -3.96 0.3 -3.94 0.52 -3.87 0.7 -3.8 0.89 -3.74 1.08 -3.68 1.26 -3.6 1.43 -3.52 1.61 -3.43 1.76 -3.33 1.94 -3.24 2.07 -3.13 2.22 -3.02 2.38 -2.94 2.52 -2.79 2.65 -2.69 2.76 -2.54 2.9 -2.43 3.04 -2.3 3.11 -2.14 3.25 -2.01 3.36 -1.86 3.45 -1.71 3.54 -1.54 3.62 -1.38 3.72 -1.22 3.8 -1.04 3.86 -0.86 3.95 -0.68 4.01 -0.49 4.04 -0.3 4.1 -0.1 0 22.42 -2.94 0.08 -2.9 0.2 -2.85 0.35 -2.79 0.48 -2.74 0.62 -2.7 0.74 -2.64 0.86 -2.58 0.98 -2.52 1.1 -2.45 1.21 -2.38 1.32 -2.29 1.43 -2.25 1.54 -2.14 1.62 -2.06 1.73 -1.98 1.82 -1.89 1.91 -1.78 1.99 -1.68 2.06 -1.58 2.16 -1.49 2.23 -1.36 2.3 -1.26 2.37 -1.13 2.41 -1.01 2.48 -0.9 2.56 -0.76 2.58 -0.63 2.66 -0.5 2.7 -0.36 2.75 -0.22 2.78 -0.07 2.84 0 0zm56.82 54.87l0 22.42 0 0 -4.1 -0.1 -4.04 -0.3 -4.01 -0.49 -3.95 -0.68 -3.86 -0.86 -3.8 -1.04 -3.72 -1.22 -3.63 -1.38 -3.53 -1.55 -3.45 -1.7 -3.36 -1.87 -3.25 -2 -3.13 -2.16 -3.02 -2.29 -2.9 -2.43 -2.76 -2.54 -2.66 -2.69 -2.51 -2.8 -2.37 -2.92 -2.23 -3.04 -2.07 -3.13 -1.93 -3.22 -1.78 -3.35 -1.6 -3.44 -1.43 -3.5 -1.26 -3.6 -1.08 -3.69 -0.89 -3.74 -0.7 -3.8 -0.52 -3.87 -0.3 -3.94 -0.11 -3.96 23.12 0 0.07 2.84 0.22 2.78 0.36 2.75 0.5 2.7 0.63 2.66 0.76 2.59 0.9 2.54 1.01 2.5 1.14 2.42 1.24 2.35 1.37 2.3 1.49 2.25 1.57 2.14 1.69 2.06 1.79 2 1.88 1.91 1.98 1.82 2.06 1.73 2.16 1.63 2.23 1.54 2.29 1.42 2.38 1.33 2.45 1.2 2.53 1.11 2.57 0.98 2.64 0.86 2.7 0.74 2.74 0.62 2.79 0.48 2.85 0.35 2.9 0.2 2.94 0.08 0 0zm56.79 -54.87l23.12 0 0 0 -0.11 3.96 -0.3 3.94 -0.52 3.87 -0.7 3.8 -0.89 3.74 -1.08 3.69 -1.26 3.6 -1.43 3.5 -1.6 3.44 -1.78 3.35 -1.92 3.21 -2.07 3.14 -2.24 3.05 -2.37 2.91 -2.5 2.79 -2.65 2.69 -2.77 2.55 -2.9 2.43 -3.02 2.29 -3.13 2.16 -3.24 2 -3.35 1.87 -3.46 1.7 -3.53 1.55 -3.63 1.38 -3.72 1.22 -3.79 1.04 -3.87 0.87 -3.95 0.67 -4 0.49 -4.04 0.3 -4.1 0.1 0 -22.42 2.94 -0.08 2.9 -0.2 2.84 -0.35 2.79 -0.49 2.75 -0.61 2.69 -0.74 2.64 -0.86 2.57 -0.98 2.53 -1.11 2.44 -1.2 2.37 -1.33 2.3 -1.42 2.23 -1.54 2.16 -1.63 2.06 -1.73 1.97 -1.81 1.87 -1.91 1.8 -2.01 1.69 -2.07 1.58 -2.13 1.47 -2.24 1.38 -2.31 1.24 -2.35 1.14 -2.42 1.01 -2.5 0.9 -2.54 0.76 -2.59 0.63 -2.66 0.5 -2.7 0.36 -2.75 0.22 -2.78 0.07 -2.84 0 0z"/>
   </g>
  </g>
 </g>
</svg>
