<svg width="30" height="30" viewBox="0 0 30 30" fill="none" xmlns="http://www.w3.org/2000/svg">
<g clip-path="url(#clip0_548_421)">
<path fill-rule="evenodd" clip-rule="evenodd" d="M15 30C23.2842 30 30 23.2842 30 15C30 6.7158 23.2842 0 15 0C6.7158 0 0 6.7158 0 15C0 23.2842 6.7158 30 15 30ZM21.5931 9.5832C21.7089 8.2692 20.3211 8.8104 20.3211 8.8104C19.2966 9.2346 18.24 9.6654 17.172 10.101C13.86 11.4519 10.4388 12.8475 7.5243 14.2212C5.9439 14.8008 6.8691 15.3804 6.8691 15.3804L9.3744 16.1535C10.5309 16.5015 11.1474 16.1148 11.1474 16.1148L16.5438 12.4434C18.471 11.1294 18.0084 12.2115 17.5458 12.6753L13.4988 16.5399C12.882 17.0811 13.1904 17.5449 13.4601 17.7768C14.2251 18.4515 16.1061 19.686 16.9272 20.2248C17.1408 20.3649 17.2827 20.4582 17.3148 20.4822C17.5074 20.6367 18.5481 21.3324 19.242 21.1779C19.9359 21.0231 20.013 20.1342 20.013 20.1342L20.9379 14.0664C21.0765 13.0131 21.2358 12.0006 21.363 11.1918C21.483 10.428 21.5745 9.8463 21.5931 9.5832Z" fill="#FF8562"/>
</g>
<defs>
<clipPath id="clip0_548_421">
<rect width="30" height="30" fill="white"/>
</clipPath>
</defs>
</svg>
