<svg width="30" height="30" viewBox="0 0 30 30" fill="none" xmlns="http://www.w3.org/2000/svg">
<g clip-path="url(#clip0_548_423)">
<path fill-rule="evenodd" clip-rule="evenodd" d="M15 30C23.2842 30 30 23.2842 30 15C30 6.7158 23.2842 0 15 0C6.7158 0 0 6.7158 0 15C0 23.2842 6.7158 30 15 30ZM7.5 10.2C7.6218 16.0464 10.545 19.56 15.6699 19.56H15.9603V16.215C17.8437 16.4025 19.2675 17.7798 19.8393 19.56H22.5C21.7692 16.899 19.8486 15.4281 18.6492 14.8659C19.8486 14.1726 21.5349 12.486 21.9378 10.2H19.5204C18.9957 12.0552 17.4408 13.7415 15.9603 13.9008V10.2H13.5432V16.6833C12.0441 16.3086 10.1514 14.4912 10.0668 10.2H7.5Z" fill="#FF8562"/>
</g>
<defs>
<clipPath id="clip0_548_423">
<rect width="30" height="30" fill="white"/>
</clipPath>
</defs>
</svg>
