<svg class="t-sociallinks__svg" role="presentation" xmlns="http://www.w3.org/2000/svg" width="30px" height="30px" viewBox="0 0 48 48"><g clip-path="url(#clip0_3697_102)"><path fill-rule="evenodd" clip-rule="evenodd" d="M24 48C37.2548 48 48 37.2548 48 24C48 10.7452 37.2548 0 24 0C10.7452 0 0 10.7452 0 24C0 37.2548 10.7452 48 24 48ZM33.3482 14L25.9027 22.4686H25.9023L34 34H28.0445L22.5915 26.2348L15.7644 34H14L21.8082 25.1193L14 14H19.9555L25.119 21.3532L31.5838 14H33.3482ZM22.695 24.1101L23.4861 25.2173V25.2177L28.8746 32.7594H31.5847L24.9813 23.5172L24.1902 22.4099L19.1103 15.2997H16.4002L22.695 24.1101Z" fill="#ffffff"></path></g><defs><clipPath id="clip0_3697_102"><rect width="48" height="48" fill="white"></rect></clipPath></defs></svg>